<svg width="201" height="200" fill="none" xmlns="http://www.w3.org/2000/svg"><path d="M163.639 105.691c0-12.206-3.691-24.139-10.606-34.288-6.915-10.149-16.744-18.06-28.243-22.73a64.083 64.083 0 00-36.36-3.513c-12.208 2.382-23.42 8.26-32.222 16.89-8.801 8.632-14.795 19.629-17.223 31.6a60.61 60.61 0 003.581 35.659c4.763 11.277 12.83 20.916 23.178 27.697 10.35 6.782 22.517 10.401 34.963 10.401a63.989 63.989 0 0024.085-4.695 63.024 63.024 0 0020.417-13.378 61.633 61.633 0 0013.642-20.024 60.68 60.68 0 004.788-23.619zm-101.58 0a37.394 37.394 0 016.52-21.061c4.25-6.233 10.29-11.091 17.354-13.959a39.366 39.366 0 0122.336-2.152c7.498 1.465 14.386 5.078 19.791 10.381 5.405 5.303 9.085 12.06 10.574 19.414a37.228 37.228 0 01-2.205 21.904c-2.928 6.927-7.884 12.846-14.243 17.01a39.194 39.194 0 01-21.479 6.384c-10.246-.01-20.07-4.011-27.31-11.122-7.24-7.111-11.303-16.75-11.298-26.799h-.04z" fill="#3F485B"/><path d="M161.187 143.904c8.909-13.564 12.806-29.714 11.039-45.755-1.767-16.04-9.091-31.002-20.749-42.386a72.394 72.394 0 00-9.3-7.674 61.383 61.383 0 00-8.374-4.996c-.369-.186-.757-.333-1.116-.538h-.06c-.279-.156-.578-.283-.857-.42l-.319-.157c-14.706-7.308-27.628-17.645-37.88-30.305A110.706 110.706 0 0185.883.997C86.622.9 87.36.802 88.107.714a115.92 115.92 0 017.975-.616 110.76 110.76 0 0119.708.929c6.519 7.107 10.806 11.086 20.366 16.619 0 0 1.136.674 1.635.977a16.09 16.09 0 001.664.802 96.195 96.195 0 018.793 4.34 96.34 96.34 0 0119.478 14.254 94.435 94.435 0 0113.577 16.16 86.896 86.896 0 012.333 3.676 93.237 93.237 0 0112.81 38.539 92.783 92.783 0 01-4.835 40.256 115.998 115.998 0 00-30.424 7.254z" fill="url(#grad2)"/><path d="M15.756 170.681a82.83 82.83 0 01-1.625-2.082 108.401 108.401 0 01-4.546-6.521 104.065 104.065 0 01-8.782-16.776 88.086 88.086 0 004.486-28.155c0-2.375-.11-4.761-.32-7.136l-.1-3.608a86.088 86.088 0 012.553-23.462l.05-.176c0-.205.09-.4.15-.606a91.762 91.762 0 017.316-18.995 72.43 72.43 0 011.296-2.434c6.836-12.323 16.384-22.997 27.953-31.248 11.569-8.25 24.866-13.87 38.926-16.45a112.924 112.924 0 0022.778 22.338c-.728 0-1.445-.097-2.173-.117a61.04 61.04 0 00-2.991-.068c-16.264.001-32.047 5.41-44.773 15.342C43.228 60.46 34.31 74.33 30.658 89.872a70.311 70.311 0 00-1.594 9.991 69.223 69.223 0 00-.25 5.866c0 1.193 0 2.366.09 3.549 0 .684.08 1.358.13 2.023v.078c1.13 20.594-3.478 41.101-13.328 59.322l.05-.02z" fill="#3F485B"/><path d="M100.747 200H99.68a97.502 97.502 0 01-39.83-8.926c-12.47-5.746-23.531-14.058-32.432-24.372a111.537 111.537 0 007.975-31.508 73.58 73.58 0 001.236 2.522c7.3 14.031 19.176 25.264 33.738 31.909 14.562 6.645 30.973 8.321 46.619 4.761a70.882 70.882 0 0013.338-4.409 71.21 71.21 0 0010.217-5.552l.13-.088c14.07-9.349 30.09-15.501 46.892-18.008a117.832 117.832 0 0113.238-1.212 109.798 109.798 0 01-1.355 3.138 102.551 102.551 0 01-3.569 7.185 105.393 105.393 0 01-9.969 15.065 91.48 91.48 0 00-25.918 9.708c-.747.412-1.463.876-2.143 1.388a97.001 97.001 0 01-31.561 15.016l-.368.098a97.377 97.377 0 01-19.529 3.089 72.855 72.855 0 01-5.642.196z" fill="#3F485B"/><defs><linearGradient id="grad1" x1="37.347" y1="134.999" x2="248.191" y2="213.57" gradientUnits="userSpaceOnUse"><stop stop-color="#FC4A1A" stop-opacity="0"/><stop offset=".12" stop-color="#FC541C"/><stop offset=".41" stop-color="#FA7925"/><stop offset=".8" stop-color="#F8A62F"/><stop offset="1" stop-color="#F7B733"/></linearGradient><linearGradient id="grad2" x1="0%" y1="0%" x2="100%" y2="0%"><stop stop-color="#FC4A1A" stop-opacity="0"/><stop offset=".12" stop-color="#FC541C"/><stop offset=".41" stop-color="#FA7925"/><stop offset=".8" stop-color="#F8A62F"/><stop offset="1" stop-color="#F7B733"/></linearGradient></defs></svg>