<svg width="24" height="24" fill="none" xmlns="http://www.w3.org/2000/svg"><g clip-path="url(#clip0_1113_1818)"><path d="M22.001 10.882a1 1 0 01-1-1c0-2.805-1.092-5.44-3.075-7.425a.999.999 0 111.414-1.414 12.418 12.418 0 013.661 8.84 1 1 0 01-1 1z" fill="url(#paint0_linear_1113_1818)"/><path d="M2 10.882a1 1 0 01-1-1c0-3.339 1.3-6.478 3.661-8.839a.999.999 0 111.414 1.414A10.432 10.432 0 003 9.882a1 1 0 01-1 1z" fill="url(#paint1_linear_1113_1818)"/><path d="M21.379 16.913A6.698 6.698 0 0119 11.788V9c0-3.519-2.614-6.432-6-6.92V1a1 1 0 10-2 0v1.08C7.613 2.568 5 5.481 5 9v2.788a6.705 6.705 0 01-2.388 5.133A1.752 1.752 0 003.75 20h16.5c.965 0 1.75-.785 1.75-1.75 0-.512-.223-.996-.621-1.337z" fill="url(#paint2_linear_1113_1818)"/><path d="M11.998 24a3.756 3.756 0 003.674-3H8.324a3.756 3.756 0 003.674 3z" fill="url(#paint3_linear_1113_1818)"/></g><defs><linearGradient id="paint0_linear_1113_1818" x1="23.058" y1="4.548" x2="17.582" y2="4.861" gradientUnits="userSpaceOnUse"><stop stop-color="#FC4F1B" stop-opacity=".83"/><stop offset=".92" stop-color="#F7AD31"/><stop offset="1" stop-color="#F7B733"/></linearGradient><linearGradient id="paint1_linear_1113_1818" x1="6.425" y1="4.548" x2=".949" y2="4.861" gradientUnits="userSpaceOnUse"><stop stop-color="#FC4F1B" stop-opacity=".83"/><stop offset=".92" stop-color="#F7AD31"/><stop offset="1" stop-color="#F7B733"/></linearGradient><linearGradient id="paint2_linear_1113_1818" x1="22.212" y1="7.497" x2="1.98" y2="9.678" gradientUnits="userSpaceOnUse"><stop stop-color="#FC4F1B" stop-opacity=".83"/><stop offset=".92" stop-color="#F7AD31"/><stop offset="1" stop-color="#F7B733"/></linearGradient><linearGradient id="paint3_linear_1113_1818" x1="15.75" y1="22.125" x2="8.721" y2="23.98" gradientUnits="userSpaceOnUse"><stop stop-color="#FC4F1B" stop-opacity=".83"/><stop offset=".92" stop-color="#F7AD31"/><stop offset="1" stop-color="#F7B733"/></linearGradient><clipPath id="clip0_1113_1818"><path fill="#fff" d="M0 0h24v24H0z"/></clipPath></defs></svg>