<svg width="160" height="40" fill="none" xmlns="http://www.w3.org/2000/svg"><path d="M65.753 27.256a7.89 7.89 0 01-4.969 1.699 8.41 8.41 0 01-8.372-8.687 8.346 8.346 0 012.338-5.513c1.81-1.872 4.026-2.728 6.649-2.566a8.134 8.134 0 014.919 2.054c1.917 1.717 2.876 3.828 2.876 6.335v8.377c-1.298-.234-2.636-.892-3.448-1.708l.007.009zm0-6.686a4.669 4.669 0 00-1.439-3.454 4.781 4.781 0 00-3.493-1.424c-1.547 0-2.845.636-3.891 1.909a4.37 4.37 0 00-.964 2.274c-.187 1.66.28 3.042 1.402 4.149a4.93 4.93 0 006.93 0 4.669 4.669 0 001.455-3.454zm49.669 6.686a7.885 7.885 0 01-4.96 1.699 8.41 8.41 0 01-7.815-5.393 8.334 8.334 0 011.783-8.807c1.808-1.872 4.024-2.728 6.648-2.566a8.128 8.128 0 014.917 2.054c1.918 1.717 2.877 3.828 2.877 6.335v8.377c-1.299-.234-2.636-.892-3.45-1.708v.009zm0-6.686a4.667 4.667 0 00-1.438-3.454 4.795 4.795 0 00-3.493-1.424c-1.545 0-2.842.636-3.89 1.909a4.354 4.354 0 00-.963 2.274c-.187 1.66.285 3.042 1.413 4.149a4.932 4.932 0 006.931 0 4.672 4.672 0 001.44-3.454zm-43.282-.04a8.408 8.408 0 008.688 8.404 8.305 8.305 0 005.457-2.285 8.126 8.126 0 002.642-6.118c0 .022 0-4.136-.047-8.445a3.45 3.45 0 00-3.45 3.438l-.018 5.007a4.678 4.678 0 01-1.439 3.458 4.931 4.931 0 01-6.932 0 4.677 4.677 0 01-1.438-3.458l.012-4.987a3.462 3.462 0 00-3.462-3.47l-.012 8.457zm27.032-5.67a1.642 1.642 0 01-.206.012c-1.107.02-1.982.363-2.626 1.027-.663.685-.994 1.612-.994 2.78v9.906a.41.41 0 01-.4.4h-2.514a.411.411 0 01-.41-.4v-16.51h2.453a.867.867 0 01.867.866v.822c.41-.66.865-.958 1.56-1.3.694-.344 1.643-.362 2.615-.383h2.192v.027a2.838 2.838 0 01-2.531 2.753h-.006zm23.047 5.508a8.314 8.314 0 002.465 6.053 8.267 8.267 0 005.929 2.51 8.253 8.253 0 005.929-2.51 8.687 8.687 0 000-12.122 8.013 8.013 0 00-5.946-2.513 7.746 7.746 0 00-4.862 1.74v-2.66c0-1.932-1.569-3.72-3.493-3.72l-.022 13.222zm11.89 3.565a4.784 4.784 0 01-3.465 1.482 4.79 4.79 0 01-3.465-1.482 4.927 4.927 0 01-1.438-3.56 4.867 4.867 0 011.446-3.54 4.83 4.83 0 016.93 0 4.854 4.854 0 011.439 3.542 4.927 4.927 0 01-1.447 3.558zm8.363 4.817h2.735l.376-.36V14.3a.368.368 0 00-.374-.356h-2.745a.368.368 0 00-.343.219.353.353 0 00-.031.139V28.38c0 .05.01.1.029.145a.375.375 0 00.208.2.369.369 0 00.145.023zm.076-21.562h3.336v.466a3.743 3.743 0 01-3.745 3.746V7.586a.41.41 0 01.409-.399zm13.458 6.928h3.581a.401.401 0 00.379-.242.392.392 0 00.032-.155v-2.763a.4.4 0 00-.255-.368.405.405 0 00-.156-.026l-3.522.043V6.559h-.244A3.34 3.34 0 00152.48 9.9v.76h-3.456a.4.4 0 00-.411.397v2.67a.405.405 0 00.255.37.38.38 0 00.156.027h3.503l-.032 9.657c0 2.91 2.194 4.972 5.151 4.972h1.943a.411.411 0 00.411-.396v-2.69a.4.4 0 00-.255-.368.405.405 0 00-.156-.026h-1.438a2.132 2.132 0 01-2.143-2.108v-9.049h-.002z" fill="#fff"/><path d="M21.138 7.433c-2.441 0-4.828.738-6.857 2.12a12.536 12.536 0 00-4.546 5.65 12.816 12.816 0 00-.703 7.271 12.665 12.665 0 003.378 6.445 12.272 12.272 0 006.32 3.445c2.395.485 4.876.236 7.132-.717a12.4 12.4 0 005.54-4.635 12.763 12.763 0 002.08-6.993c0-1.653-.32-3.29-.94-4.817a12.604 12.604 0 00-2.675-4.084 12.328 12.328 0 00-4.005-2.728 12.135 12.135 0 00-4.724-.957zm0 20.316c-1.5 0-2.965-.455-4.212-1.304a7.701 7.701 0 01-2.792-3.471 7.873 7.873 0 01-.43-4.467 7.78 7.78 0 012.076-3.959 7.538 7.538 0 013.883-2.114 7.447 7.447 0 014.38.44 7.617 7.617 0 013.403 2.85 7.84 7.84 0 01-.948 9.757 7.507 7.507 0 01-5.36 2.26v.008z" fill="url(#paint0_linear_30303_1482)"/><path d="M28.78 7.923a13.887 13.887 0 00-9.15-2.208 13.993 13.993 0 00-8.477 4.15 14.49 14.49 0 00-1.535 1.86c-.377.53-.71 1.09-1 1.675-.037.074-.066.151-.107.223v.012c-.031.056-.057.116-.084.171l-.031.064a22.802 22.802 0 01-8.197 9.114 23.292 23.292 0 01-.2-2.97c0-1.008.07-2.014.206-3.012 1.422-1.303 2.218-2.16 3.324-4.073l.196-.327c.06-.107.113-.219.16-.333.26-.6.55-1.188.868-1.758a19.265 19.265 0 012.85-3.896 18.884 18.884 0 013.968-3.182A18.646 18.646 0 0119.279.871c2.72-.275 5.468.055 8.051.967a23.21 23.21 0 001.45 6.085z" fill="url(#paint1_linear_30303_1482)"/><path d="M34.136 37.01a21.684 21.684 0 01-1.72 1.234A20.815 20.815 0 0129.06 40a17.618 17.618 0 00-7.059-.833l-.721.02a17.215 17.215 0 01-4.693-.51l-.035-.01c-.041 0-.08-.019-.121-.03a18.348 18.348 0 01-3.8-1.464 19.006 19.006 0 01-6.736-5.85 19.456 19.456 0 01-3.29-7.785 22.585 22.585 0 004.468-4.556c0 .146-.02.29-.023.435a14.562 14.562 0 003.055 9.553 14.075 14.075 0 007.868 5.059 14.057 14.057 0 003.172.369c.238 0 .473 0 .71-.018.136 0 .271-.016.404-.026h.016a22.36 22.36 0 0111.864 2.665l-.004-.01z" fill="url(#paint2_linear_30303_1482)"/><path d="M40 20.011v.213a19.5 19.5 0 01-1.785 7.967 19.147 19.147 0 01-4.874 6.486 22.31 22.31 0 00-6.302-1.595c.17-.08.338-.162.505-.247a14.27 14.27 0 006.381-6.748 14.65 14.65 0 00.953-9.324 14.253 14.253 0 00-.882-2.667 14.25 14.25 0 00-1.11-2.044l-.018-.026a23.109 23.109 0 01-3.602-9.378A23.57 23.57 0 0129.024 0a22.016 22.016 0 012.064.985 21.069 21.069 0 013.013 1.994 18.294 18.294 0 001.942 5.183c.082.15.175.293.278.429a19.403 19.403 0 013.003 6.312l.02.074c.337 1.276.544 2.585.617 3.905.03.381.04.754.04 1.129z" fill="url(#paint3_linear_30303_1482)"/><defs><linearGradient id="paint0_linear_30303_1482" x1="4141.35" y1="22789" x2="1544.92" y2="22880.3" gradientUnits="userSpaceOnUse"><stop stop-color="#FC4A1A"/><stop offset=".18" stop-color="#FB571D"/><stop offset=".51" stop-color="#FA7A25"/><stop offset=".96" stop-color="#F7B232"/><stop offset="1" stop-color="#F7B733"/></linearGradient><linearGradient id="paint1_linear_30303_1482" x1="29.086" y1="9.101" x2=".197" y2="13.137" gradientUnits="userSpaceOnUse"><stop offset=".02" stop-color="#FC4A1A" stop-opacity="0"/><stop offset=".04" stop-color="#FC4B1A" stop-opacity=".15"/><stop offset=".08" stop-color="#FC4D1B" stop-opacity=".45"/><stop offset=".11" stop-color="#FC4F1B" stop-opacity=".68"/><stop offset=".14" stop-color="#FC501C" stop-opacity=".86"/><stop offset=".17" stop-color="#FC511C" stop-opacity=".96"/><stop offset=".18" stop-color="#FC511C"/><stop offset=".92" stop-color="#F7AD31"/><stop offset="1" stop-color="#F7B733"/></linearGradient><linearGradient id="paint2_linear_30303_1482" x1="23.082" y1="37.657" x2="6.257" y2="19.784" gradientUnits="userSpaceOnUse"><stop stop-color="#FC4A1A"/><stop offset=".57" stop-color="#F9902A"/><stop offset=".81" stop-color="#F7AE31"/><stop offset=".82" stop-color="#F7AE31" stop-opacity=".97"/><stop offset=".85" stop-color="#F7AF31" stop-opacity=".89"/><stop offset=".87" stop-color="#F7B031" stop-opacity=".76"/><stop offset=".91" stop-color="#F7B232" stop-opacity=".57"/><stop offset=".94" stop-color="#F7B432" stop-opacity=".33"/><stop offset=".98" stop-color="#F7B733" stop-opacity="0"/></linearGradient><linearGradient id="paint3_linear_30303_1482" x1="27" y1="32.691" x2="42.714" y2="-9.478" gradientUnits="userSpaceOnUse"><stop stop-color="#FC4A1A" stop-opacity="0"/><stop offset=".12" stop-color="#FC541C"/><stop offset=".41" stop-color="#FA7925"/><stop offset=".8" stop-color="#F8A62F"/><stop offset="1" stop-color="#F7B733"/></linearGradient></defs></svg>