<svg id="f65cd752-c8bb-488b-950f-dc9674c15243" data-name="Слой 1" xmlns="http://www.w3.org/2000/svg" xmlns:xlink="http://www.w3.org/1999/xlink" viewBox="0 0 1920.61 1080"><defs><linearGradient id="f6a92fe5-fa51-41ba-92e2-0bf83fdcf16c" x1="1021.96" y1="134.69" x2="1032.34" y2="134.69" gradientUnits="userSpaceOnUse"><stop offset="0" stop-color="#fc4a1a"/><stop offset=".18" stop-color="#fb571d"/><stop offset=".51" stop-color="#fa7a25"/><stop offset=".96" stop-color="#f7b232"/><stop offset="1" stop-color="#f7b733"/></linearGradient><linearGradient id="ef8a8032-453b-46cc-b3d3-d6e886e8b6ae" x1="1036.03" y1="139.6" x2="1046.41" y2="139.6" xlink:href="#f6a92fe5-fa51-41ba-92e2-0bf83fdcf16c"/><linearGradient id="fc5216a8-9975-4609-a5ec-087ca37445cb" x1="1050.1" y1="144.52" x2="1060.47" y2="144.52" xlink:href="#f6a92fe5-fa51-41ba-92e2-0bf83fdcf16c"/><linearGradient id="ef5ffb62-eb1e-4c87-a8e5-c75ea6be6d1a" x1="1064.16" y1="149.43" x2="1074.54" y2="149.43" xlink:href="#f6a92fe5-fa51-41ba-92e2-0bf83fdcf16c"/><linearGradient id="b8628ef9-3352-48e3-bb10-a40f857be992" x1="1078.23" y1="154.35" x2="1088.61" y2="154.35" xlink:href="#f6a92fe5-fa51-41ba-92e2-0bf83fdcf16c"/><linearGradient id="ad987eb1-f1d1-4b1d-baf9-6cab10c21c75" x1="1092.3" y1="159.27" x2="1102.68" y2="159.27" xlink:href="#f6a92fe5-fa51-41ba-92e2-0bf83fdcf16c"/><linearGradient id="b8d7b732-b179-4230-b2e8-028ea314f60c" x1="1106.37" y1="164.18" x2="1116.74" y2="164.18" xlink:href="#f6a92fe5-fa51-41ba-92e2-0bf83fdcf16c"/><linearGradient id="b4a9c026-db2a-4866-8940-0bb164dde6ae" x1="1120.43" y1="169.1" x2="1130.81" y2="169.1" xlink:href="#f6a92fe5-fa51-41ba-92e2-0bf83fdcf16c"/><linearGradient id="b5e57293-b4ab-41ed-8cb7-1e865e0dae45" x1="1134.5" y1="174.01" x2="1144.88" y2="174.01" xlink:href="#f6a92fe5-fa51-41ba-92e2-0bf83fdcf16c"/><linearGradient id="e34d5ec4-3844-4e81-a637-dfbba794d221" x1="1148.57" y1="178.93" x2="1158.95" y2="178.93" xlink:href="#f6a92fe5-fa51-41ba-92e2-0bf83fdcf16c"/><linearGradient id="bf07550b-3d02-45b7-a588-d68d8b9593db" x1="1162.64" y1="183.84" x2="1173.01" y2="183.84" xlink:href="#f6a92fe5-fa51-41ba-92e2-0bf83fdcf16c"/><linearGradient id="b6d7aeb9-6fdf-4754-9c10-ecbfa209fc7c" x1="1176.7" y1="188.76" x2="1187.08" y2="188.76" xlink:href="#f6a92fe5-fa51-41ba-92e2-0bf83fdcf16c"/><linearGradient id="bcf67a6a-7c65-4b0e-97a6-15a161398029" x1="1190.77" y1="193.68" x2="1201.15" y2="193.68" xlink:href="#f6a92fe5-fa51-41ba-92e2-0bf83fdcf16c"/><linearGradient id="eea6cc7f-e634-41eb-83c1-fce6fd57ea00" x1="1204.84" y1="198.59" x2="1215.21" y2="198.59" xlink:href="#f6a92fe5-fa51-41ba-92e2-0bf83fdcf16c"/><linearGradient id="ad0958b1-e321-4766-863a-8eb87f259409" x1="1218.91" y1="203.51" x2="1229.28" y2="203.51" xlink:href="#f6a92fe5-fa51-41ba-92e2-0bf83fdcf16c"/><linearGradient id="a7252f00-1d25-4ce9-8a5b-57c4926a6349" x1="569.46" y1="202.46" x2="749.83" y2="202.46" xlink:href="#f6a92fe5-fa51-41ba-92e2-0bf83fdcf16c"/><linearGradient id="a759bf7f-cdbd-48c7-915d-a0d2ed0bbffc" x1="596.67" y1="564.45" x2="813.66" y2="564.45" xlink:href="#f6a92fe5-fa51-41ba-92e2-0bf83fdcf16c"/><linearGradient id="e4857348-ee57-4db1-92e6-096035842b35" x1="638.15" y1="52.17" x2="821.37" y2="52.17" xlink:href="#f6a92fe5-fa51-41ba-92e2-0bf83fdcf16c"/><linearGradient id="b66a4ffa-7673-4e61-9021-8686cbe50a7e" x1="1179.71" y1="37.99" x2="1360.28" y2="37.99" xlink:href="#f6a92fe5-fa51-41ba-92e2-0bf83fdcf16c"/><linearGradient id="a60214c5-456d-42a5-826b-151dee542a9d" x1="446.86" y1="362.64" x2="1298.51" y2="362.64" xlink:href="#f6a92fe5-fa51-41ba-92e2-0bf83fdcf16c"/><linearGradient id="f1dca898-e7c7-422b-8af9-93b90cd23686" x1="1129.56" y1="329.15" x2="1131.01" y2="329.15" xlink:href="#f6a92fe5-fa51-41ba-92e2-0bf83fdcf16c"/><linearGradient id="ef287270-3b69-494b-9950-b5ebe4a57a97" x1="1573.23" y1="259.43" x2="1635.05" y2="259.43" xlink:href="#f6a92fe5-fa51-41ba-92e2-0bf83fdcf16c"/><linearGradient id="abe16058-c21b-48a6-b719-5d51caf17882" x1="1388.38" y1="254.75" x2="1560.56" y2="254.75" xlink:href="#f6a92fe5-fa51-41ba-92e2-0bf83fdcf16c"/><linearGradient id="eef37274-3433-4b66-b9b4-c886ae9f8ad8" x1="1023.88" y1="564.45" x2="1114.82" y2="564.45" xlink:href="#f6a92fe5-fa51-41ba-92e2-0bf83fdcf16c"/><linearGradient id="b6ee2d9f-d970-4a9f-9c8c-9db2ee132e7c" x1="134.34" y1="476.03" x2="1893.58" y2="476.03" xlink:href="#f6a92fe5-fa51-41ba-92e2-0bf83fdcf16c"/><radialGradient id="af0311ae-76ca-45c6-9404-b54fde0f8e58" cx="953.28" cy="1276.58" r="579.84" gradientTransform="matrix(1 0 0 .54 0 -120.92)" gradientUnits="userSpaceOnUse"><stop offset="0" stop-opacity="0"/><stop offset="1"/></radialGradient><radialGradient id="a64866a7-bb1e-46e8-abe2-dedb21afdb36" cx="1191.32" cy="1954.43" r="959.86" gradientTransform="matrix(1.08 0 0 .67 -326.62 -747.9)" xlink:href="#af0311ae-76ca-45c6-9404-b54fde0f8e58"/></defs><path d="M-1.35-107.85h1919.52v1352.07H-1.35z"/><path d="M1030.85 116.62a264.74 264.74 0 01-8.85 35.75c-.3.94 1.18 1.35 1.48.41a264.85 264.85 0 008.84-35.76c.17-1-1.3-1.37-1.47-.4z" fill="url(#f6a92fe5-fa51-41ba-92e2-0bf83fdcf16c)"/><path d="M1044.92 121.53a264.88 264.88 0 01-8.85 35.76c-.3.94 1.18 1.34 1.48.4a264.71 264.71 0 008.84-35.75c.17-1-1.31-1.38-1.47-.41z" fill="url(#ef8a8032-453b-46cc-b3d3-d6e886e8b6ae)"/><path d="M1059 126.45a264.71 264.71 0 01-8.84 35.75c-.31.94 1.17 1.35 1.47.41a264.51 264.51 0 008.85-35.76c.17-1-1.31-1.37-1.48-.4z" fill="url(#fc5216a8-9975-4609-a5ec-087ca37445cb)"/><path d="M1073.05 131.36a264.88 264.88 0 01-8.85 35.76c-.3.94 1.18 1.34 1.48.41a264.88 264.88 0 008.85-35.76c.17-1-1.31-1.38-1.48-.41z" fill="url(#ef5ffb62-eb1e-4c87-a8e5-c75ea6be6d1a)"/><path d="M1087.12 136.28a265.25 265.25 0 01-8.85 35.76c-.3.94 1.18 1.34 1.48.4a264.71 264.71 0 008.84-35.75c.17-1-1.3-1.38-1.47-.41z" fill="url(#b8628ef9-3352-48e3-bb10-a40f857be992)"/><path d="M1101.18 141.2a264.71 264.71 0 01-8.84 35.75c-.3.94 1.17 1.34 1.48.41a264.85 264.85 0 008.84-35.76c.17-1-1.31-1.38-1.48-.4z" fill="url(#ad987eb1-f1d1-4b1d-baf9-6cab10c21c75)"/><path d="M1115.25 146.11a264.85 264.85 0 01-8.84 35.76c-.31.94 1.17 1.34 1.47.4a264.74 264.74 0 008.85-35.75c.17-1-1.31-1.38-1.48-.41z" fill="url(#b8d7b732-b179-4230-b2e8-028ea314f60c)"/><path d="M1129.32 151a264.74 264.74 0 01-8.85 35.75c-.3.94 1.18 1.35 1.48.41a264.51 264.51 0 008.85-35.76c.17-1-1.31-1.37-1.48-.4z" fill="url(#b4a9c026-db2a-4866-8940-0bb164dde6ae)"/><path d="M1143.39 155.94a264.88 264.88 0 01-8.85 35.76c-.3.94 1.18 1.34 1.48.41a265.22 265.22 0 008.84-35.76c.17-1-1.3-1.38-1.47-.41z" fill="url(#b5e57293-b4ab-41ed-8cb7-1e865e0dae45)"/><path d="M1157.45 160.86a264.71 264.71 0 01-8.84 35.75c-.3.94 1.17 1.35 1.48.41a264.71 264.71 0 008.84-35.75c.17-1-1.31-1.38-1.48-.41z" fill="url(#e34d5ec4-3844-4e81-a637-dfbba794d221)"/><path d="M1171.52 165.77a264.48 264.48 0 01-8.84 35.76c-.31.94 1.17 1.34 1.47.41a264.88 264.88 0 008.85-35.76c.17-1-1.31-1.38-1.48-.41z" fill="url(#bf07550b-3d02-45b7-a588-d68d8b9593db)"/><path d="M1185.59 170.69a265.25 265.25 0 01-8.85 35.76c-.3.94 1.18 1.34 1.48.4a264.74 264.74 0 008.85-35.75c.17-1-1.31-1.38-1.48-.41z" fill="url(#b6d7aeb9-6fdf-4754-9c10-ecbfa209fc7c)"/><path d="M1199.66 175.61a264.74 264.74 0 01-8.85 35.75c-.3.94 1.18 1.34 1.48.41a264.85 264.85 0 008.84-35.76c.17-1-1.3-1.38-1.47-.4z" fill="url(#bcf67a6a-7c65-4b0e-97a6-15a161398029)"/><path d="M1213.72 180.52a264.85 264.85 0 01-8.84 35.76c-.3.94 1.17 1.34 1.48.4a264.71 264.71 0 008.84-35.75c.17-1-1.31-1.38-1.48-.41z" fill="url(#eea6cc7f-e634-41eb-83c1-fce6fd57ea00)"/><path d="M1227.79 185.44a264.71 264.71 0 01-8.84 35.75c-.31.94 1.17 1.35 1.47.41a264.51 264.51 0 008.85-35.76c.17-1-1.31-1.37-1.48-.4z" fill="url(#ad0958b1-e321-4766-863a-8eb87f259409)"/><path d="M623.48 120.14c-5.14 24.13-12.42 47.91-20.05 71.35-1.91 5.88-3.88 11.73-6 17.54l.73-.56c-7.89.36-15.79-.08-23.68.24a.78.78 0 00-.74.56c-.47 3.36-1.88 6.59-2.86 9.82-.72 2.38-2.14 6-1.07 8.46s4.51 3.8 6.74 4.8c3 1.35 6.15 2.41 9.27 3.51l-.54-.94c-1.8 5.41-4.61 10.73-5.05 16.5-.4 5.2 2.8 8.46 7.1 10.85a145.6 145.6 0 0015.41 6.89c5.85 2.4 11.79 4.59 17.62 7 5.48 2.28 11.82 4.67 16.11 8.93a.77.77 0 001.28-.33c1.05-4 2-11.21 6.41-13.08a21.21 21.21 0 016-1c3.46-.35 6.88-.8 10.31-1.33 20.26-3.11 41-2.39 61.42-1.86 3.62.09 8.17.63 9.72-3.47 1.14-3 .88-6.68.92-9.84.07-5.35 0-10.69 0-16-.08-10.38-.16-20.78.1-31.17.25-9.64.53-19.6 2.82-29s5.93-18.22 9-27.27c2.88-8.48 5.6-17.36 5.38-26.41 0-1-1.56-1-1.53 0 .2 8.24-2.12 16.32-4.68 24.07-2.7 8.19-5.93 16.21-8.38 24.48-5.36 18.1-4.33 37.83-4.28 56.5 0 10.16.76 20.56-.11 30.69-.2 2.25-.5 5-3 5.72s-5.3.21-7.74.17c-20.05-.32-40.15-1.09-60 2-3.9.6-7.79 1-11.7 1.46a14.75 14.75 0 00-5.55 1.35c-4.39 2.46-5.39 9.37-6.53 13.71l1.28-.34c-4.28-4.25-10.45-6.66-15.91-9-6.88-2.9-13.93-5.41-20.79-8.36-3.2-1.37-6.42-2.73-9.59-4.19s-6.75-3.11-8.57-6.12c-1.91-3.18-.72-7.34.3-10.64 1.09-3.53 2.6-6.92 3.77-10.43a.79.79 0 00-.53-1c-2.8-1-5.61-1.93-8.33-3.1-2.06-.89-6.18-2.29-6.8-4.75s1-6.15 1.73-8.55a51.38 51.38 0 002.39-8.3l-.74.56c7.89-.32 15.79.12 23.68-.24a.78.78 0 00.74-.56c8.33-23.19 15.44-46.92 21.66-70.75 1.57-6 3.06-12.06 4.35-18.14.21-1-1.27-1.38-1.47-.41z" fill="url(#a7252f00-1d25-4ce9-8a5b-57c4926a6349)"/><path d="M744.37 629.66c-13.41 3.75-26.1-2-37.48-8.76-10.73-6.36-21.42-12.88-32.7-18.26-9.85-4.7-20.18-7.76-30.5-11.21-9.76-3.27-19.69-7.16-27.59-13.95a56.12 56.12 0 01-16.72-26.8c-2.51-9.3-.85-20.33 6.85-26.87 3.14-2.68 7.17-4.37 11-5.81a140.63 140.63 0 0116.94-5c30.64-7.35 62.48-10.34 93.83-12.7 13.11-1 26.24-1.79 39.38-2.12 14.08-.35 31.56.27 40.56 13 5.88 8.3 4.78 19.34 1.61 28.48-3.46 10-9.7 18.7-15.75 27.25-3 4.3-6.09 8.59-8.84 13.09a77.26 77.26 0 00-7.12 16.3c-1.88 5.71-3.52 11.93-7.06 16.88-2.9 4.07-7.11 6.72-11.42 9.08-4.88 2.67-9.65 5.76-15 7.41-.94.29-.54 1.77.4 1.47 5.48-1.69 10.35-4.82 15.35-7.56 4.06-2.22 8-4.69 11-8.32 3.62-4.45 5.44-10.16 7.22-15.52 2.13-6.45 4.22-12.81 7.76-18.65 10.77-17.76 28.3-34.69 27.56-57-.64-19.13-19.82-27-36.44-27.5-12.13-.38-24.4.56-36.5 1.32C707.53 500 674 503 641.45 509.79c-11.17 2.33-23.58 4.78-33.43 10.87a24.83 24.83 0 00-10.76 15.94c-2.21 10.4 2.12 20.9 7.54 29.58a54.27 54.27 0 0022.67 20.44c9.33 4.6 19.4 7.38 29.24 10.62 12.63 4.17 24.38 10.33 35.86 17 11.21 6.49 22.33 14.72 35.23 17.41a35.56 35.56 0 0017-.5.76.76 0 00-.43-1.49z" fill="url(#a759bf7f-cdbd-48c7-915d-a0d2ed0bbffc)"/><path d="M676-14.63c-4.53 9.26-9.94 18.07-14.29 27.42s-6.26 18.91-8.9 28.71a67.34 67.34 0 01-5.64 14.7c-2.18 4-4.64 7.93-6.47 12.15-2.3 5.29-4.56 14.07.52 18.59 4.67 4.16 12.49 2.39 18 4.8a.78.78 0 001-.28c2.25-4.44 2.54-11.76 8.9-11.76 3.1 0 6 1.7 8.62 3.16s5.34 3.17 8.11 4.57c6.3 3.19 13.7 4 20.62 4.84 4.39.56 8.8 1.06 13.14 2a106.74 106.74 0 0111.74 3.47c8.18 2.7 16.42 5.17 24.64 7.74 4 1.24 8.07 2.37 12 3.88a69 69 0 019.2 4.66c5.08 2.91 10.47 6.42 16.44 7s10.55-2.91 14.49-7.11a49.76 49.76 0 0012.81-40.2.75.75 0 00-.74-.56c-7.67.87-15.47-3.25-22.06-6.64-3.27-1.68-6.47-3.48-9.75-5.13s-6.66-3.31-9.21-6c-4-4.29-3.27-9.77-2.22-15.09.88-4.52 2.68-9.59 1-14.12-3.25-8.52-14.15-12.66-21.95-15.49-10.58-3.84-21.59-6.21-32.46-9C717.54.19 711.82-1.93 706-4c-9.68-3.39-19.51-6.89-28.09-12.65-.82-.55-1.59.78-.77 1.33 7.26 4.87 15.44 8.13 23.63 11.08C707-2 713.18.49 719.54 2.25c10.6 2.93 21.39 5.06 31.86 8.47a81 81 0 0115.65 6.6c3.74 2.17 7.76 5.07 9.39 9.25 1.92 4.89-.58 10.78-1.41 15.7-.78 4.66-.86 9.35 2.24 13.23 2.32 2.9 5.66 4.85 8.93 6.5 3.64 1.83 7.21 3.79 10.83 5.66 6.91 3.57 15.12 7.94 23.17 7l-.74-.57a48.12 48.12 0 01-12.41 38.71c-2.33 2.49-5 5.12-8.29 6.21a14.48 14.48 0 01-9.1-.48c-6.19-2.09-11.56-6.1-17.38-9-6.73-3.34-14.3-5.13-21.45-7.34q-12-3.72-24-7.67C719.11 92 711 91.39 703 90.28a83.12 83.12 0 01-11.92-2.43 39 39 0 01-8.4-3.94c-4.62-2.66-10.48-7.07-16.17-5.42-5.11 1.47-5.54 8.17-7.59 12.2l1.05-.27c-4.93-2.17-10.42-1.4-15.38-3.26-8.17-3.07-4.26-14.76-1.52-20.33 1.89-3.84 4.2-7.45 6.15-11.25a67.85 67.85 0 004.82-12.77c2.63-9.47 4.33-19 8.4-28 4.44-9.83 10.14-19 14.87-28.69.43-.88-.89-1.66-1.32-.77z" fill="url(#e4857348-ee57-4db1-92e6-096035842b35)"/><path d="M1359.93 109.05c-3.15-6.25-9.2-9.9-13.85-14.87-6.12-6.52-6.95-15.16-5.09-23.6 1.68-7.59 4.41-14.95 6-22.54 1.4-6.55-.6-12-5.2-16.78-5.06-5.27-12.12-7.47-19-9.34-3.45-.93-6.94-1.76-10.34-2.89a104.34 104.34 0 01-11.93-5.22c-17.6-8.44-34.39-18.49-52.26-26.37-20.93-9.23-43-15.51-63.88-24.85-3.57-1.6-6.69 3.68-3.1 5.29 18.3 8.18 37.46 14.07 56 21.55 18 7.24 34.8 16.91 52.06 25.69 7.62 3.87 15.4 8.07 23.63 10.5 6.8 2 14.24 3.11 20.44 6.74 4.93 2.89 8.83 7.91 7.69 13.79-.6 3.08-1.71 6.05-2.57 9.06-1.22 4.26-2.32 8.59-3.32 12.91-2.13 9.21-2 19.22 3.78 27.15 4.54 6.18 12.1 10 15.59 16.87 1.77 3.52 7.06.42 5.29-3.09z" fill="url(#b66a4ffa-7673-4e61-9021-8686cbe50a7e)"/><g id="f13cd67a-a403-4aa7-800a-d65ba0ebc42c" data-name="group" fill="none" stroke-miterlimit="10"><path d="M1291.32 251.79c-36.09-12.29-72.44-23.79-108.75-35.4-35.34-11.3-70.64-22.76-105.56-35.34q-29.91-10.77-59.36-22.77c-4.46-1.82-10.29 2-11.3 6.42-1.22 5.35 1.64 9.35 6.42 11.31 18.1 7.41 36.36 14.39 54.74 21.07-7.38 20.77-15.32 41.36-23.08 62l-7.77 20.64c-2.59 6.87-4.25 14.05-3.48 21.44a48.84 48.84 0 002.29 10.53 36.69 36.69 0 00-14.24 7.9 37.17 37.17 0 00-8.59 13.3 158.84 158.84 0 00-5.34 17 120.54 120.54 0 01-9.45 23.11A209.34 209.34 0 01986 392.54c-5.18-.49-10.41-.8-15.35.59a8.44 8.44 0 00-6.1 5.76 36.17 36.17 0 00-1.55 11 92.2 92.2 0 01-11.41-.33c-8.1-.53-16.19-.46-24.3-.65-18.23-.41-36.29-2.26-54.44-3.79-18-1.52-36-2.55-54.07-2.38s-35.69 2.17-53.54 4.68C747 410 728.62 411.83 710.18 411h-.08a1.17 1.17 0 01-.05-.11c-5.71-11.1-19-15.67-29.61-20.63-14-6.56-26.12-17.11-37.87-27-13.23-11.18-25.89-23-38.61-34.76-11.44-10.57-23.08-20.95-33.84-32.23-11.82-12.38-23.18-26.13-29.6-42.19-1.44-3.62-7.37-2-5.9 1.63 11.52 28.86 36.07 50.5 58.42 71.05 12.69 11.67 25.23 23.51 38.22 34.84 6.49 5.67 13.11 11.2 19.89 16.52 6.26 4.91 12.59 10.19 19.53 14.1 6.17 3.47 12.82 6 19.11 9.2 4.59 2.35 9.26 5.08 12.57 9-5.84-.56-11.65-1.38-17.45-2.27-5.71-3.06-11.44-6.11-17-9.44a128.92 128.92 0 01-20.15-14.93c-6.47-5.82-12.64-11.95-19.16-17.69-6.74-5.92-13.93-11.69-22.22-15.27-3.58-1.54-6.71 3.73-3.09 5.29 15 6.5 26.45 19.5 38.32 30.35a140.89 140.89 0 0019.5 15.27c2.07 1.31 4.18 2.56 6.3 3.79-13-1.78-26.47-3.32-39.44-.9a39.57 39.57 0 00-8 2.33 3.31 3.31 0 00-2 3.51 2.21 2.21 0 00-1.27-.68c-6.93-1.09-14.32-.18-21.25.53-4.07.41-8.15.92-12.19 1.58a53.29 53.29 0 00-7 1.49 46 46 0 00-8.21-8.28c-5.51-4.43-11.44-7.54-18.47-8.67s-14.14-.9-21.16-1.94a65.57 65.57 0 01-19.16-6.11c-5.47-2.67-10.77-6.53-16.79-7.86-21.23-4.68-29.2 22.64-31.15 38.45-1.34 10.84-.48 22 4 32.07a45.64 45.64 0 0014.32 17.63 111 111 0 00-7.17 13.88c-2.37 5.08-4.61 10.22-7 15.3a3.15 3.15 0 001.1 4.19 3.08 3.08 0 004.19-1.1c2.37-5.07 4.61-10.21 7-15.3a114.59 114.59 0 017-13.54c1.1.64 2.22 1.26 3.37 1.82a81.08 81.08 0 0017.56 5.86c7.67 1.78 15.64 3.46 23.56 2.88a33.92 33.92 0 005.8-.95l.11.16c.88 1.08 1.2 1.52 2.2 2.88s2 2.71 2.93 4.09c2.31 3.3 4.54 6.67 6.7 10.08s4.22 6.82 6.11 10.35a33.59 33.59 0 013.39 7.76 2.72 2.72 0 002.39 2.14c1.19 6.46 4.82 12.58 7.48 18.42 2.78 6.11 5.9 13.27 4.59 20.06-12.86-3.26-26.15-1.77-39.15.31-13.3 2.12-27.34 5.27-40.8 2.54a101.46 101.46 0 01-25.22-9.05c-3.83-1.93-8.1-4.13-10.93-7.45a7 7 0 01-1.11-1.62c-.07-.15-.19-.72-.18-.52a14.21 14.21 0 01.82-5c2.81-9.83 8.25-18.63 12.08-28.06 1.48-3.65-4.44-5.24-5.91-1.63-3.43 8.46-8.44 17.05-11.44 26-1.17 3.47-2.51 7.75-1.11 11.33 1.49 3.81 5.18 6.57 8.48 8.73 8.51 5.59 18.6 9.34 28.36 12.09 12.43 3.49 25.21 2.29 37.8.33 16.4-2.55 33.27-6.34 49.58-1.25a3.15 3.15 0 003.77-2.14c3.3-8.1.29-17-3-24.6-1.71-4-3.66-7.9-5.43-11.88-1.37-3.07-2.84-6.42-3-9.82a3 3 0 00-3-2.94 55.89 55.89 0 00-3.05-6.45c-1.94-3.66-4.08-7.21-6.3-10.72-3.5-5.53-7.16-11-11.18-16.2 8.1-3.58 15-9.7 21.84-15.6 3.66-2.37 7.57-4.4 10.34-8l.09-.13a2.9 2.9 0 001-1.38c3.7-5.54 5.7-12.54 6.79-18.96a29.09 29.09 0 00-1.68-16.83c5.17-1.43 10.83-1.83 16-2.35 3.84-.4 7.69-.7 11.55-.85 1.6-.07 3.2-.1 4.81-.08.71 0 1.42 0 2.13.08l.85.07h.29a3.15 3.15 0 003.76-2.14 2.68 2.68 0 00.08-1.06 2.39 2.39 0 002.69.38c11.7-4.86 25.5-3.57 37.78-2.21 7.92.87 15.77 2.18 23.63 3.42l1.78.94c8.83 4.75 17.71 9.63 25.6 15.87 3.07 2.42 7.43-1.89 4.34-4.33a135.91 135.91 0 00-15.16-10.22c17.92 1.9 36 .93 53.86-1.18s35.67-5.21 53.78-5.94a487.46 487.46 0 0154.19 1.2c18 1.28 36 3.47 54.06 4.29 9.06.41 18.11.36 27.17.58 6.67.15 13.35 1.08 20 .79h.38c.05 2.51.14 5 .14 7.54a.77.77 0 001.53 0c0-2.53-.1-5.09-.17-7.65a27.71 27.71 0 0015.08-5.52 37.56 37.56 0 007-7.94q2.76-3.85 5.38-7.81c.62.05 1.25.09 1.87.12a274.52 274.52 0 011.24 29.94.77.77 0 001.53 0 268.28 268.28 0 00-1.25-30.69.79.79 0 00-.76-.77c-.52 0-1.05-.07-1.58-.1l.72-1.07a186.43 186.43 0 0012.73-22.6 146.36 146.36 0 007.89-22c2.89-10.22 5.95-21.22 15.75-26.92a35.89 35.89 0 017.71-3.21 43.51 43.51 0 0019.21 19.96c6.64 3.38 14.14 5.43 21.16 7.87l22.46 7.81a41.11 41.11 0 0018.73 1.91 6.34 6.34 0 012.31 2.8c.79 2 .39 4.19-.17 6.16-1.43 5-4.41 9.48-6.93 14-5.2 9.27-5.78 20.12-5.53 30.56.14 5.63.4 11.79 2.43 17.11 1.39 3.64 7.32 2.06 5.91-1.63-1.81-4.75-2.06-10.11-2.2-15.14a87.65 87.65 0 011.1-18.09c1.85-10.11 10.15-17.6 11.7-27.81a13.18 13.18 0 00-1.9-9.43 36.14 36.14 0 0010.44-5.27 41 41 0 0014.54-19.36c2.34-6.34 4.46-12.76 6.68-19.14 8.26-23.79 16.9-47.54 24.12-71.67l.65-2.3q21.09 6.75 42.2 13.5c20.61 6.64 41.2 13.38 61.7 20.36 4.56 1.55 10.25-1.78 11.31-6.42a9.41 9.41 0 00-6.39-11.32zm-717.66 188.6a36.46 36.46 0 01-4.24 10.47c-.17.26-.38.48-.57.73a108.06 108.06 0 00-9.94 7.85 26.92 26.92 0 00-5.84 4.69 3.22 3.22 0 00-.48.74 65.11 65.11 0 01-13 8.89c-6.3 3.07-13.45 3.26-20.29 2.4a118.13 118.13 0 01-19.75-4.31c-9.49-2.92-18.59-8.18-24.53-16.31-6.08-8.31-8.39-18.5-8.18-28.67A73.11 73.11 0 01472 401c2.54-6.23 7-13.87 14.36-14.85 4.61-.62 8.71 1.61 12.62 3.72a113.93 113.93 0 0016.85 7.82 75.6 75.6 0 0019.09 3.54c6.06.44 12.23.43 18.09 2.2 6.46 1.95 12.17 6.48 16.65 11.44a21.6 21.6 0 015.93 14.88 42.29 42.29 0 01-1.93 10.64zM984.38 395c-3.87 5.6-7.6 11.56-14.44 13.71a27.19 27.19 0 01-5.42 1 43.06 43.06 0 01.92-8.24c.7-3.18 1.93-5.73 5.19-6.78 3.74-1.2 7.92-1.05 11.79-.87.87 0 1.73.11 2.6.17-.22.38-.43.7-.64 1.01zm67.13-100.58v0c.08-1.42.07-.54 0 .01zM1116 337l1.07-.19a2.33 2.33 0 01-1.07.19zm41.69-83.91q-6.35 19-12.94 38-3.39 9.84-6.82 19.67l-3.15 9c-.49 1.38-1 2.77-1.46 4.14 0 .13-.19.47-.29.71h0c-.44.83-.86 1.65-1.34 2.45-.35.57-.73 1.12-1.1 1.68l.16-.18a2.52 2.52 0 00-.21.25 4.23 4.23 0 01-.42.48v.05c-1.06 1.13-2.24 2.13-3.32 3.24l-.61.43c-.56.37-1.12.73-1.7 1.06s-1.37.74-2.07 1.1l-.4.22-.48.14a38.37 38.37 0 01-4.2 1.15c-.33.06-.67.1-1 .17a2.44 2.44 0 00-.33.09h-1.61c-.8 0-1.6 0-2.39-.06-.06 0-.47-.06-.76-.08a40.31 40.31 0 01-4.69-1.2c-12.48-4.2-24.89-8.62-37.32-13l-.53-.18c-.34-.12-.67-.26-1-.37l-1.07-.5a35.14 35.14 0 01-3.89-2.26c-.36-.23-.7-.49-1-.74.41.27-1-.85-1.37-1.17a42.74 42.74 0 01-3-3.14l-.36-.43-.06-.07c-.5-.74-1-1.46-1.47-2.22-.75-1.23-1.28-2.6-2-3.82h0c0-.09 0-.18-.07-.25-.3-.84-.59-1.67-.83-2.52s-1.28-3.32-1-4.24c0 .12.21 2.27.06.45l-.09-1c0-.79-.09-1.57-.1-2.36s0-1.59.07-2.38v-.8a11.07 11.07 0 00.29-1.87c.19-.92.42-1.82.68-2.72 1.9-6.57 4.77-13 7.18-19.37 8.45-22.44 17-44.85 25.12-67.4q16.7 5.9 33.49 11.51 23.32 7.81 46.76 15.28c-2.11 7.78-4.8 15.4-7.33 23.02z" stroke="url(#a60214c5-456d-42a5-826b-151dee542a9d)"/><path d="M1130.13 329.31c.15-.15.28-.32.42-.48v0a.1.1 0 010-.05c-.55.62-.55.68-.42.53z" stroke="url(#f1dca898-e7c7-422b-8af9-93b90cd23686)"/></g><path d="M1629.08 209.54c-2.77 15.31-10 29.83-16.77 43.72-3.15 6.51-5.83 13.47-11.4 18.33s-12.59 8.14-17.55 13.87c-5.37 6.22-6.57 14.1-9.83 21.39-1.6 3.57 3.68 6.69 5.29 3.09 2.82-6.31 3.93-13.78 8.21-19.35 4.59-6 11.72-9.3 17.44-14 6-4.95 9-11.7 12.31-18.52 3.56-7.3 7-14.66 10.16-22.16 3.35-8 6.5-16.19 8-24.73.7-3.85-5.2-5.51-5.91-1.62z" fill="url(#ef287270-3b69-494b-9950-b5ebe4a57a97)"/><path d="M1559.75 263.77c.94-3.4 1.65-7.85-1.37-10.46a18.76 18.76 0 00-3.83-2.29c-4.76-2.41-9.76-4.36-14.72-6.31-15.52-6.09-31.29-11.56-47-17-14.69-5.12-29.44-10.1-44.09-15.37a287.42 287.42 0 01-13.23-5.17c-8.32-3.49-19.57-7.85-28.08-2.56-4.44 2.75-6.58 7.48-8.63 12.07q-3.29 7.35-6 15c-1.68 4.64-3.45 9.45-4.17 14.36-.62 4.23.49 8.81.94 13a.82.82 0 00.57.74c27.93 10.5 56.29 20 84.61 29.38 14.46 4.8 29 9.57 43.56 13.9 4.59 1.36 9.21 2.73 13.89 3.78 2.27.51 4.64 1.32 6.6-.32 2.3-1.93 3.92-4.89 5.39-7.44 2.42-4.19 4.55-8.54 6.58-12.93 3.34-7.22 6.74-14.65 9-22.29a.77.77 0 00-1.48-.41 161.46 161.46 0 01-7.78 19.51c-3.12 6.92-6.3 14.33-10.94 20.39-2.21 2.89-3.29 2.82-6.59 2.11-4.31-.94-8.57-2.19-12.8-3.44-30.47-8.93-60.54-19.38-90.53-29.78-13.09-4.54-26.18-9.06-39.15-13.94l.57.74c-.41-3.77-1.39-7.9-1.1-11.72s1.62-7.46 2.78-11c1.58-4.76 3.38-9.45 5.3-14.08 1.61-3.87 3.16-8 5.45-11.55 9.64-14.89 30.13-2.2 42.54 2.32 28.47 10.38 57.34 19.62 85.71 30.29 6.32 2.38 12.66 4.78 18.82 7.57a51.22 51.22 0 015.49 2.76c3.55 2.14 3.28 6 2.23 9.79a.77.77 0 001.46.35z" fill="url(#abe16058-c21b-48a6-b719-5d51caf17882)"/><path id="bfbcff35-16fa-4bfc-a04e-2cf93e125ad4" data-name="domcenter" d="M1115.86 688c14-41.31 36.45-107.44 42.9-126.45a4.1 4.1 0 00-2.33-5.12l-42.86-17.61a4.12 4.12 0 00-5.45 2.44l-3.33 9.46a4.12 4.12 0 01-5.16 2.54l-8.65-2.82a4.12 4.12 0 01-2.61-5.29c1-2.81 2.3-6.53 3.33-9.47a4.1 4.1 0 00-2.6-5.28l-20.32-6.62a4.12 4.12 0 00-5.16 2.54l-2.29 6.52a4.1 4.1 0 01-5.14 2.55l-22.12-7.21a4.11 4.11 0 00-5.16 2.54c-.93 2.67-2 5.68-2.81 8a4.11 4.11 0 01-5.16 2.54l-9.08-3A4.11 4.11 0 011009 534l1-10.33a4.1 4.1 0 00-2.81-4.29l-15.49-5a4.11 4.11 0 00-5.16 2.55l-3.64 10.36a4.1 4.1 0 01-5.15 2.54L953.87 522a4.11 4.11 0 00-5.15 2.55l-18.89 53.63a4.09 4.09 0 002.57 5.27l47.75 15.89 1.46.5 3.3-9.38a4.11 4.11 0 015.15-2.55l16.78 5.47-.13.36-18.71 53.1a4.11 4.11 0 01-3.88 2.75h-4a4.11 4.11 0 00-3.89 2.76l-12.79 36.3a4.1 4.1 0 002.57 5.26l41.25 13.73a4.09 4.09 0 005.16-2.52c3.45-9.81 10.06-28.57 14.06-39.93a4.1 4.1 0 015.17-2.53l9.88 3.29a4.11 4.11 0 005.18-2.54c1.92-5.46 4.87-13.82 4.87-13.82l.05-.15c3 .95 6.72 2.17 10.45 3.39a4.09 4.09 0 012.61 5.26l-15.55 44.16a4.09 4.09 0 002.76 5.31l48.54 13.75a4.09 4.09 0 005-2.62c1.85-5.48 5.65-16.69 10.42-30.69z" fill="#333"/><path d="M1069.35 508a41 41 0 00-41 41c0 16.95 23 52 34.52 68.59a7.87 7.87 0 0012.91 0c11.54-16.56 34.51-51.64 34.51-68.59a41 41 0 00-40.94-41zm0 58a17 17 0 1117-17 17 17 0 01-17 17z" fill="none" stroke-miterlimit="10" stroke-width="9" stroke="url(#eef37274-3433-4b66-b9b4-c886ae9f8ad8)" id="a493fdd3-1123-4384-8f8a-df25badedd15" data-name="metka"/><path d="M1882.2 416.63l-345.8 2.94c7.17-12.78 13.29-26.12 19.41-39.42 2.66-5.79 5.68-12 5.37-18.51a19.11 19.11 0 00-5.63-12.32c-3.75-4-8.31-7.14-12.6-10.53a8.6 8.6 0 00-4.41-8.06 716.77 716.77 0 00-89-38.59c-30.48-10.83-62.07-18.14-92.39-29.43a428.31 428.31 0 01-47.67-21.08c-.25-.12-.51-.2-.76-.31q12.28-30.16 24.28-60.47 3.87-9.85 7.68-19.72c1.08-2.8 2.15-5.59 3.27-8.36l.69-1.67c.18-.44.37-.87.56-1.3q1.13-2.58 2.34-5.12c1.21-2.52 2.5-5 3.91-7.43a79.04 79.04 0 012.4-3.92c.5-.76 1-1.52 1.54-2.26.12-.16.79-1 1-1.33a51.6 51.6 0 015.48-5.87c.54-.49 1.1-1 1.66-1.44 1.39-1.17.54-.39.22-.17a42.31 42.31 0 014.47-2.8c.65-.35 1.32-.68 2-1l.28-.14.44-.14c1.77-.57 3.52-1.07 5.33-1.5a36.45 36.45 0 019.52-.33c6.24.46 14 3 20.51 5.49 14.84 5.78 29.73 13.33 44.52 19.89q46.5 20.63 93.56 39.91 46.51 19.2 93.3 37.68 23.54 9.36 47.08 18.66c8 3.16 16 6.31 24 9.35 7.63 2.88 15.3 6 23.2 8.11a55.21 55.21 0 0015.77 2.11c.91.34 1.84.65 2.75 1l2.54 1 .43.18 2 .86c8 3.58 15.82 7.71 23.52 12 16 8.84 31.71 17.9 48.61 24.94 2.53 1.06 5.07 2.09 7.6 3.14l.82.34 1.43.61c1.33.58 2.66 1.17 4 1.79s2.62 1.24 3.91 1.9c.38.2.77.39 1.15.61a.13.13 0 01.06 0 8.49 8.49 0 002.45 7.9c3.51 3.21 9.58 3.82 13 0 5.22-5.83 4.43-13.18-.39-19-3.31-4-8-6.09-12.66-8.17-5.42-2.45-11-4.64-16.46-6.93l-.32-.13-.15-.07-1.78-.76q-1.6-.71-3.21-1.44-3.35-1.55-6.65-3.19c-16.66-8.29-32.42-18.29-49.16-26.42a65.65 65.65 0 004.91-4.68c10.8-11.45 20.52-24.11 30.12-36.56a718 718 0 0052.2-77.61q5.85-10.05 11.36-20.29a9.38 9.38 0 00-3.3-12.58c-4.18-2.45-10.21-1.08-12.57 3.3a719.76 719.76 0 01-50 79.74 681.985 681.985 0 01-28.5 36.71c-4.65 5.59-9.23 11.39-14.45 16.47-3.43 3.34-6.71 5.68-11.07 6.52a129.92 129.92 0 00-13-3.77 10.15 10.15 0 00-6.47.72c-2.09-.73-4.16-1.5-6.18-2.24-8.08-2.93-16.1-6-24.1-9.13-15.74-6.16-31.44-12.42-47.15-18.66-31.37-12.45-62.7-25-93.92-37.78-30.87-12.67-61.61-25.62-92.15-39.08-15.07-6.64-30-13.59-45.06-20.27-14.83-6.58-30.63-12.5-47.13-10.19-29.61 4.13-42.27 33.12-51.78 57.81-10.39 26.94-21.19 53.72-32.1 80.44-22.79 55.83-46.18 111.41-68.21 167.54q-3.54 9-7 18.07L888 425.07l-266.78 2.27c2.87-13.84 3.86-28 1.2-42-2.9-15.2-11.07-28.43-22.14-39.05-9.86-9.46-21.39-17-31.32-26.36a87 87 0 01-6.9-7.21c-.5-.59-1-1.19-1.47-1.78 1 1.17-.24-.33-.55-.76a72.608 72.608 0 01-3.17-4.75 83.67 83.67 0 01-4.92-9.32c-.17-.37-.33-.75-.5-1.12v-.05c-.29-.76-.6-1.51-.89-2.27-.68-1.79-1.3-3.59-1.88-5.41a153.06 153.06 0 01-4.92-20.94c-.3-1.78-.59-3.57-.85-5.36-.11-.74-.21-1.47-.31-2.2s-.17-1.33-.25-2c-.45-3.59-.84-7.18-1.21-10.77-1.81-17.42-3.51-34.85-5.26-52.28L525.5 90.27l.63-.1 1.15-.12a46.88 46.88 0 016.91 0c.34 0 1.89.19 2.21.21 1 .15 2 .33 3 .53 2.31.48 4.58 1.08 6.83 1.78s4.56 1.52 6.79 2.4c.53.21 1.06.44 1.6.64l.15.06h0c1.33.58 2.65 1.17 4 1.77 4.54 2.08 9 4.33 13.46 6.56 9.42 4.72 18.94 9.33 29 12.6a173.37 173.37 0 0031.88 6.73c21 2.68 42.28 2.21 63.43 2.25 9.54 0 19.08.16 28.6.8q6.93.47 13.83 1.28l2.18.29q1.32.18 2.64.39 3.6.56 7.19 1.26c5 1 10 2.17 14.85 3.62q3.81 1.14 7.56 2.5c1.12.4 2.23.83 3.33 1.27l1.47.59h0l.33.15a110.48 110.48 0 0113.56 7.18c2.11 1.33 4.16 2.76 6.18 4.24l.25.2c.55.44 1.09.87 1.63 1.32 1 .85 2 1.73 3 2.63 3.56 3.22 9.52 3.78 13 0 3.22-3.52 3.81-9.56 0-13-29.75-26.88-71.11-32.47-109.7-33-21.41-.32-42.87.51-64.23-1.35-2.6-.23-5.19-.49-7.78-.81l-1.32-.16-.78-.11c-1.51-.22-3-.45-4.52-.71a156.56 156.56 0 01-15.6-3.42 131.92 131.92 0 01-14.86-5.05l-2.06-.88c-1.06-.47-2.11-1-3.16-1.45-2.38-1.11-4.74-2.26-7.09-3.43-19.22-9.53-39.59-20.53-61.42-17.76q-4.6-45.91-9.22-91.83l-1.32-13.19c-.48-4.77-3.89-9.43-9.19-9.19-4.57.21-9.71 4.07-9.19 9.19l10.73 106.4 10.64 106q2.67 26.61 5.35 53.23c1.56 15.58 2.87 31.29 6.18 46.63 3.09 14.37 8.24 28.84 17.06 40.73C553.11 331.49 564 340 575 348.75a152.25 152.25 0 0115.22 13.48c1 1.1 2.08 2.22 3.06 3.38.46.54.91 1.1 1.36 1.65-.38-.45.64.85 1 1.28a59.34 59.34 0 015.36 9.26l.39.88a.26.26 0 010 .08c.33.94.71 1.86 1 2.81.59 1.74 1.1 3.52 1.54 5.31s.78 3.6 1.09 5.43c0 .22.06.37.08.47s0 .25 0 .47c.11 1 .2 2 .28 3a90 90 0 010 11.73c-.11 1.76-.26 3.51-.45 5.27 0 .31-.16 1.3-.19 1.55-.15 1-.3 2-.47 3-.66 3.84-1.49 7.65-2.44 11.42a9 9 0 00-.23 1.54c-4 5.32-1.71 15.1 6.95 15l496.48-4.22 104.35-.88q-4.32 13-8.61 26l-324.19 2.73-279.28 2.37a8.74 8.74 0 00-4.95 1.47 8 8 0 00-3 3.08c-4 7.42-7.64 11.57-13.21 17.75-2.4 2.65-4.79 5.35-7.44 7.75-.57.52-1.15 1-1.74 1.52l-.92.75c-1.37.95-2.72 1.94-4.14 2.83a68.39 68.39 0 01-8.6 4.52l-1.23.49c-.74.28-1.49.55-2.24.81-1.75.59-3.53 1.12-5.32 1.58-1.53.38-3.07.72-4.62 1l-1.51.25s-1.94.22-2.25.25a62.74 62.74 0 01-10 0c-31.38-.34-65.62-15.23-82.6-42.66-16.18-26.15-16.28-62.15-3.1-89.55 13.41-27.87 39.85-48.6 49.66-78.24 10.36-31.27-2.92-65.32-6.16-96.75-4.23-42.55-7.93-85.29-11.93-128-5.06-54.13-10.23-108.25-16.2-162.29-4.8-43.54-9.5-87.32-17.62-130.42q-1-5.34-2.14-10.66c-2.49-11.56-20.21-6.66-17.73 4.89 8.68 40.37 13 81.83 17.6 122.81 6.23 55 11.54 110 16.71 165.11 4.2 44.75 8.12 89.54 12.64 134.26 1.3 12.85 3 25.57 5.36 38.26 3.31 17.57 7.68 36.33 3.08 54.07-3.86 14.9-14.36 27.61-23.56 39.61-8.81 11.48-17.68 23-24.26 36-15.87.3-31.61 2.66-47.47 2.94-14.12.25-28.21-1-42.31-1.23-7.64-15-19.84-26.85-31.89-38.53-6.4-6.21-13.28-12.37-18.21-19.86a58 58 0 01-8.53-22.44c-1.47-8.44-1.5-17.12-2-25.65a78.16 78.16 0 00-6.61-28.12c-7.53-17-20.69-30.88-30.35-46.63C226 172.22 213 151.44 205 128.67c-3.9-11.08-21.67-6.31-17.73 4.89 7.3 20.72 18.14 39.94 29.48 58.68 5.18 8.57 10.41 17.07 16.28 25.2 5.36 7.41 11 14.66 15.61 22.57 4.32 7.4 7.58 15.5 8.31 24.12.75 8.86.7 17.76 1.78 26.6 2.34 19.12 9.86 34.67 23.29 48.54 10.94 11.3 24.89 22.09 33.8 35.63a76.91 76.91 0 00-24.57 6.44c-11.52 5.31-21.64 13.51-30.91 22.05s-17.6 17.61-26.54 26.27c-10.63 10.28-21.89 19.9-32.85 29.82-21 19-44.53 38.66-55.6 65.46-10 24.22-9.39 51.13-7.12 76.76 1.11 12.47 2.63 24.91 3.54 37.4 1.15 15.68 1.49 31.45 1.95 47.16 1 33.58 1.33 67.17.75 100.76C143.32 854 139 920.86 139 987.85c0 18.24.1 36.48.46 54.71.32 15.78 1.73 31.63 1.26 47.4-.37 12.76-1.41 25.52-.83 38.28.5 11.25 1.79 24.34 8.92 33.58 3 3.92 7.9 6 12.58 3.3 3.86-2.26 6.35-8.63 3.29-12.58-5.11-6.62-6-15.6-6.41-24.3-.5-11.07.2-22.15.65-33.21.5-12.14-.27-24.19-.65-36.33-.52-16.17-.72-32.35-.81-48.53-.37-65 2.75-129.92 4.67-194.91q.47-15.74.67-31.47c20.81-.06 103.58-.28 163.58-.22-65.74-1.87-139.4-3.38-163.57-.55q.48-32.26 0-64.56c0-2.74-.09-5.5-.13-8.25 12.65 2.87 25.82 3.65 38.73 3.53a270.19 270.19 0 0049.59-5.13c13.64-2.69 27.65-6.31 40.41-11.89 6.13-2.69 12.16-6.1 16.79-11a28.71 28.71 0 007.51-16.61c1.92-15.52-2.61-30.87-4.9-46.23l5.35-.92 4.27-.69 1.81-.27.89-.13c7.48-1.11 15-1.64 22.47-3.11 13.72-2.7 26.9-7.68 40.57-10.63q10.24-2.22 20.62-3.65l.39-.05 2.84-.35c1.57-.19 3.15-.36 4.73-.53.82-.08 1.65-.12 2.47-.2-2 16.25-.85 32.84.06 49.13a.78.78 0 001 .74c16.13-4.83 33.53-.1 49.85 1.15 9 .68 17.61 2.54 26.38 4.33a126.56 126.56 0 0017 2.58q-.61 15-1.24 30c-3.14 3.23-7.2 5.33-10.75 8.09a30.38 30.38 0 00-7.68 8.78c-20.87-.62-41.62-6.37-62.58-3.44a.8.8 0 00-.56.74c-.62 14.16-1.27 29.06 1.95 43 2.93 12.67 10.33 24.52 10.32 37.78-16.85.65-33.67-.35-50.49-1.19-5.57-.27-31.43-.39-64-.43 56.29 1.61 106.74 3.49 115.27 3.13a.77.77 0 00.76-.76c.29-13.14-6.72-24.91-10-37.31-3.66-14-3-29.21-2.32-43.52 20.37-2.71 40.57 2.76 60.87 3.52-.32.64-.68 1.26-1 1.93-4.33 10-5.63 21.38-7.31 32-1.83 11.63-3.17 23.45-2.32 35.23.87 12.11 4.24 23.16 9.18 34.19 2.61 5.83 5.5 11.54 7.83 17.49a140.08 140.08 0 015.56 17.64c-.7 11.38-1.45 22.76-2.32 34.13-2.52 33-5.91 66-10.88 98.77-.75 5 1.24 9.83 6.42 11.31 4.33 1.24 10.56-1.52 11.3-6.42 5.3-34.92 8.9-70 11.59-105.2h.22l28.31 1.26c4.57.2 9.13.38 13.69.62 2.24.12 4.48.26 6.71.45 1.12.1 2.23.2 3.35.32l1.42.17h.28l.6.09a76.77 76.77 0 0113 3.1c1 .35 2 .72 3 1.11l1.64.75q2.9 1.38 5.7 3A197 197 0 01619 905.43l1.73 1.32 2.35 1.85c1.72 1.37 3.42 2.75 5.12 4.15q5.26 4.37 10.38 8.88c6.61 5.82 13.07 11.79 19.51 17.79l27.32 25.49a9.5 9.5 0 006.44 6.36l.45.06 7.83 7.31 47.5 44.31c3.52 3.28 9.57 3.74 13 0 3.28-3.57 3.76-9.5 0-13l-55.03-51.38 4.23-11.08c8.58.43 17 4.34 25.15 6.61 11.73 3.27 23.59 6 35.27 9.48s23 8.29 34.28 13.2c8 3.49 16 6.46 24.23 9.4 3.4 1.22 6.81 2.49 10.1 4q-9.09 29.85-18.2 59.68-16.23 53.06-32.71 106-2.19 7-4.37 14c-1.43 4.59 1.7 10.24 6.42 11.31a9.39 9.39 0 0011.31-6.42q17.07-54.62 33.81-109.33 15.43-50.39 30.77-100.82 15.87-52.08 31.91-104.09 8.69-28.12 17.47-56.21a55.31 55.31 0 00-9-49.94c-10.88-14.08-27.95-20.85-44.7-25.08-18.6-4.7-37.5-8.39-56.23-12.51l-6.76-1.48 24.47-64 33.88-88.65a4.68 4.68 0 00.25-.83c15.75 2.91 28.44 14.84 42.71 21.77 17.4 8.46 36.64 11.38 54.82 17.63 5.34 1.84 11.64 4.24 14.33 9.63 3.36 6.76.45 15.44-1.56 22.13-1.46 4.85-3.32 9.59-4.73 14.45-.83 2.86-1.38 5.8-2.11 8.68-.81 3.25-1.63 6.74-3.36 9.64-1.42 2.4-3.6 3.18-6.31 3.28-7.24.28-14.83-3-21.25-6-5.71-2.66-11.7-5.66-16.55-9.72a.78.78 0 00-1.08 0 16 16 0 00-4.21 7.06c-4.19-.79-7.78-5.78-12.22-4.75-4.16 1-4.19 6.3-5.08 9.8-4.32-1-8.45-2.67-12.89-3.1a.77.77 0 00-.74.56 191.5 191.5 0 01-7.54 21.46c-1.91 4.82-3.4 9.78-5.64 14.47-1 2.06-2.11 4.48-3.87 6-2.08 1.82-5.06 1-7.45.27-2.92-.88-5.71-2.14-8.54-3.28-3.09-1.25-6.29-2.2-9.45-3.28-8.52-2.91-17-5.75-25.93-7.2-1-.16-1.38 1.32-.41 1.48 8.61 1.4 16.84 4.09 25.07 6.9 3.44 1.18 6.95 2.21 10.32 3.58a85 85 0 009.17 3.46c2.1.59 4.67 1.16 6.76.21a9.43 9.43 0 003.71-3.8c3-4.75 4.78-10.32 6.68-15.58 2.87-7.91 6.18-15.52 8.41-23.65 4.33.53 8.41 2.26 12.67 3.14a.8.8 0 001-.54c1.08-3.36 1-11.1 6.5-9.12 3.49 1.26 6.22 4.2 10 4.58a.77.77 0 00.74-.56 14.73 14.73 0 013.58-6.55 76.45 76.45 0 0014.55 8.68c6.22 3 12.9 5.84 19.8 6.77 5.23.71 9.82 0 12.22-5.14 3-6.33 3.59-13.49 5.82-20.08 1.89-5.58 3.82-11.17 5.29-16.89a38.83 38.83 0 001.59-11.66 15.49 15.49 0 00-7.64-12.74c-6.78-4.25-15.29-6.11-22.91-8.21-10.41-2.88-20.94-5.41-31.07-9.22-11.25-4.22-20.91-10.67-31.09-16.9-6.87-4.21-14.1-7.79-21.9-9.23 0-4-3.09-8.08-6.85-8.93-5.25-1.2-9.46 1.6-11.31 6.42q-30 78.63-60.11 157.27-29.86 78.15-59.75 156.31l-28.2 73.79-16.57-15.47c-13.32-12.42-26.67-24.86-41.05-36.06-14.61-11.4-30.46-23.26-48.86-27.46-10.66-2.44-21.67-2.82-32.55-3.29l-31.73-1.39q1.88-27.91 3.21-55.87c2.86-59.36 5.14-118.75 7.6-178.13q1.92-46.51 3.9-93a77 77 0 0036.22-11.53c6.89-4.3 12.56-9.73 18-15.72a131.44 131.44 0 0013.4-17l491.03-4.18 101.1-.85q-6.27 19.23-12.51 38.48-18.48 57.14-36.69 114.36-19 59.49-37.92 119l-6.91 21.64c-7.63-6.69-18.31-10.19-27.84-12.49-15.68-3.79-31.88-4.34-47.58-8.12a192.89 192.89 0 01-30.28-9.94 3.17 3.17 0 00-4.19 1.1c-.76 1.28-.42 3.54 1.1 4.19a205.63 205.63 0 0052.64 14.45c13.82 1.88 27.81 3.21 40.8 8.73 4.81 2 9.66 4.74 13.27 8.6q-13.89 43.46-27.86 86.87-16.55 51.32-33.48 102.5-1.86 5.6-3.74 11.21c-1.52 4.56 1.76 10.24 6.43 11.3a9.39 9.39 0 0011.3-6.42q16.72-50.05 32.89-100.29 11.92-36.9 23.74-73.86a9.21 9.21 0 003.93-.15c1.47-.39 2.94-.74 4.43-1l1.19-.19 1.26-.14a59.93 59.93 0 018.89-.15c1.34.08 2.67.2 4 .34 1.87.21.61.09.22 0l2.21.37c3 .54 5.93 1.25 8.84 2.08s5.59 1.72 8.34 2.72c1.17.43 2.33.87 3.49 1.33l2.17.87.43.18 1.26.54c5.45 2.38 10.79 5 16.11 7.64 22.24 11.11 44.68 21.66 67.65 31.18s46.06 18 69.62 25.47q3.29 1 6.63 2 4.56 61 4.47 122.22c0 4.81 4.24 9.41 9.19 9.19a9.36 9.36 0 009.2-9.19q.09-59-4.15-117.78c12.12 2.14 24.47 2.66 36.48 0a55.11 55.11 0 0027.71-15.47c7.73-8.12 12.61-18.21 16.45-28.63 3.66-9.94 6.32-20.22 9.73-30.24 1.13-3.33 2.33-6.64 3.57-9.93a11.84 11.84 0 001.45-.58l.16-.07-.46.14c.32-.1.63-.25 1-.33s.82-.3 1.33-.46h.17c.43 0 .89-.06 1.33-.07s1-.07 1.52 0l.38.12c.33.09.67.14 1 .22.78.19 1.53.45 2.3.68a4.44 4.44 0 01.49.19l.21.09c.84.41 1.66.86 2.47 1.36s1.37.92 2.06 1.38c-1.47-1 0 .07.63.61s1 1 1.53 1.49c.33.35.65.7 1 1.06l.34.41c.26.4.85 1.24 1 1.43.45.72.86 1.47 1.24 2.22.16.32.78 1.81.83 1.86.33.92.67 1.84 1 2.79a51.64 51.64 0 011.28 5.47c0 .13.11.66.17 1s.06.4.06.44c.12 1.16.23 2.32.31 3.49.28 4.12.24 8.25.12 12.37-.29 9.32-.79 18.62-1.19 27.93q-.72 16.35-1.43 32.71a9.26 9.26 0 009.19 9.19 9.4 9.4 0 009.2-9.19c.9-20.79 2.18-41.6 2.66-62.41a110.79 110.79 0 00-.32-11.5c34.54.79 68.86 5.28 103.21 8.75h0a2.93 2.93 0 002.62 1.61h.28a3 3 0 002.33-1.11c17.12 1.67 34.28 3 51.48 3.47 14.53.36 29.29.46 43.72-1.48 5.85-.79 13.93-2 20.31-5.18.66 2.78 1.4 5.54 2.24 8.27 3.43 11 8.53 21.53 14 31.67 11.39 20.88 23.28 41.5 34.94 62.23q19.62 34.93 39.26 69.86c2.36 4.19 8.46 5.95 12.58 3.3a9.38 9.38 0 003.3-12.58q-35.49-63.12-71-126.24c-2.8-5-5.56-10-8.11-15.15-1.27-2.57-2.48-5.15-3.63-7.77l-.28-.68c-.21-.51-.41-1-.61-1.53q-.87-2.22-1.65-4.47a119.51 119.51 0 01-4.3-16c-.24-1.2-.45-2.39-.66-3.6l-.36-2.25c0-.1-.08-.55-.13-.9s-.22-1.76-.21-1.64c-.07-.6-.14-1.21-.2-1.82-.16-1.51-.3-3-.41-4.55-1.71-22.2.84-44.45 2.65-66.55 1-12.48 1.86-25 1.65-37.52-.19-10.92-.28-23.83-9.49-30.36 2.6-2.48 5.06-5.1 7.61-7.61 1.54-1.51 3.14-2.94 4.78-4.33l.62-.48c.51-.36 1-.72 1.57-1.05.83-.53 1.7-1 2.57-1.45 0 0 .89-.43 1.23-.55.71-.24 1.43-.46 2.15-.65s1.17-.26 1.75-.4l.49-.12h.17a61 61 0 019.07 0c1.26.1 2.51.24 3.76.39l1.1.15 2.26.34 9.92 1.57 87.03 13.7c4.73.74 10.12-1.21 11.31-6.42 1-4.41-1.34-10.51-6.42-11.31L1770.8 651c-6.45-1-12.91-2-19.37-3s-12.84-2-19.29-1.58a40.51 40.51 0 00-18.66 5.6 70.46 70.46 0 00-12.66 10.59c-1.64 1.66-3.27 3.35-4.94 5-.92.9-1.86 1.8-2.83 2.66-.38.35-.77.69-1.16 1s-.71.58-1 .78a47.14 47.14 0 01-6.36 3.94c-.74.38-1.49.73-2.25 1.07l-1.34.54c-.74.27-1.49.53-2.25.77a61.4 61.4 0 01-7 1.74c-.65.12-1.32.21-2 .34h-.34c-1.34.13-2.68.26-4 .34a76.26 76.26 0 01-7.71.05c-1.22-.05-2.44-.13-3.66-.23-.64 0-1.28-.12-1.91-.18 4.26-13.9 9.23-27.59 13.77-41.4 1.3-4 3.46-6.07 7.06-8.21 5.65-3.35 12.26-4.62 18.38-6.83a33.93 33.93 0 0013.49-8.27c3.5-3.71 5.8-8.22 7.76-12.87 2.4-5.68 4.47-11.5 6.9-17.17 3-7 6.12-13.85 8.9-20.9 6.19-15.73 8.34-32.81 15.19-48.28 6.11-13.79 17.44-23.78 25.64-36.17l101.26-.86c11.83-.1 11.86-18.49 0-18.38l-496.33 4.19-153.89 1.3q4.28-13 8.57-26l374-3.17L1882.2 435c11.8-.09 11.85-18.47 0-18.37zM1847.8 307v0c.45.4.25.32 0 0zm-94.9-47.47zM798.57 149.35zm-293.8 666.46c-.42-.91-.83-1.83-1.25-2.75-4.55-9.79-8.87-19.55-10.36-30.35-1.46-10.61-.74-21.56.7-32.13.75-5.53 1.73-11 2.75-16.53a136.91 136.91 0 013.06-14.31c1.37-4.57 3.41-8.72 7.22-11.76.87-.68 1.76-1.32 2.66-2-1.55 36.64-2.89 73.25-4.78 109.83zM314.55 661.3c.1 7.05-.75 14.28-4.89 20.2-3.86 5.5-9.66 9.38-15.66 12.33-12.13 6-25.94 9.56-39.11 12.42a266.42 266.42 0 01-47.75 5.83c-14.77.49-29.95-.08-44.44-3.44-.38-23.54-.83-47.18-2.64-70.65 45.35.33 90.36-4.61 135-12.37l14.25-2.49c1.82 12.72 5.07 25.27 5.24 38.17zm197-2.56a141.43 141.43 0 01-19.28-3.07 201.58 201.58 0 00-24.91-3.9c-15.91-1.32-32.8-5.65-48.58-1.28-.91-16-2-32.32 0-48.28 2.3-.2 4.59-.42 6.89-.57a311.14 311.14 0 0146.7.53c4 .34 7.92.75 11.88 1.24l1.89.23.8.11 1.49.21q2.83.4 5.67.85c6.54 1.05 13 2.34 19.51 3.77q-1.06 25.08-2.09 50.16zm2.83-68.74a336.13 336.13 0 00-76.82-7.24 311.23 311.23 0 00-43.19 4.17c-13.86 2.3-27.26 6-40.72 9.88-3.36 1-6.74 1.9-10.15 2.66-1.56.36-3.14.67-4.72 1-1 .17-1.93.32-2.89.47l-1.81.27c-5.82.78-11.65 1.37-17.45 2.24-6.38 1-12.72 2.11-19.07 3.23-8.41 1.48-16.82 2.94-25.25 4.27-4.93.78-9.85 1.53-14.79 2.22l-3.55.49h-.45l-2.2.29c-2.75.36-5.51.7-8.26 1a662.34 662.34 0 01-84.7 4.63c-2.25-21.55-4.93-43.45-2-65a88 88 0 0111.4-33.58c7-11.63 17.26-21.24 27-30.6 22.25-21.5 45.85-41.43 67.68-63.38 9.35-9.4 19-18.8 30.4-25.67a61.32 61.32 0 0116.37-7.08c7-1.79 14-1.64 21.14-1.85a7.61 7.61 0 001.16-.12c15.66 0 31.28 1.54 47 1.26 13.34-.23 26.6-1.93 39.91-2.65-8.17 26.5-7.17 55.84 4.09 81.31 13.77 31.13 46.07 52.45 78.68 59.36a128.82 128.82 0 0015.65 2.27q-1.3 28.04-2.46 56.15zm370.69 168.9c-.34-.24-.24-.18 0 0zM792 732.61L843.66 744a232.27 232.27 0 0124 6.17c1.79.61 3.55 1.26 5.31 2l.27.11.85.38c1 .44 1.92.9 2.87 1.38q2.47 1.24 4.83 2.71c.78.49 1.55 1 2.31 1.52l1 .74.56.44a48.8 48.8 0 014.08 3.79c.63.66 1.21 1.36 1.83 2l.34.42c.19.26.39.53.57.8a42.18 42.18 0 012.82 4.64c.44.83.82 1.67 1.22 2.52.2.56.43 1.12.62 1.69a45.7 45.7 0 011.48 5.23c.19.87.32 1.75.49 2.62 0 .49.1 1 .14 1.47a45.22 45.22 0 01.07 5.82c0 .82-.13 1.64-.2 2.46-.1.54-.19 1.09-.3 1.63a127.6 127.6 0 01-3.72 12.63q-2.22 7.14-4.45 14.3-4.26 13.68-8.49 27.35-11.32 36.6-22.51 73.25a2.91 2.91 0 00-1.33-1.79c-6.81-4.29-14.57-6.73-22.21-9.1-8.2-2.54-16-5.75-24-8.8-8.86-3.36-17.71-6.62-26.43-10.31-8.53-3.61-17.09-7.18-25.76-10.45-7.26-2.73-14.6-5.23-22-7.38l25.47-66.64q14.25-37.5 28.61-74.99zM735.64 880c15.05 4.33 29.62 10.1 44.05 16.16 8.68 3.65 17.36 7.16 26.19 10.43 8.07 3 15.94 6.52 24.15 9.12 8.6 2.72 17.51 5 25.21 9.87a2.68 2.68 0 003.45-.32q-4 13.06-8 26.13-5 16.47-10 32.93c-1.27-.54-2.55-1.07-3.82-1.58-7.52-3-15.28-5.32-22.75-8.43-12-5-23.63-10.7-36-14.68-12-3.88-24.31-6.77-36.49-10-6.19-1.66-12.25-3.66-18.39-5.5a64.32 64.32 0 00-11.11-2.51q11.74-30.87 23.51-61.62zm-146 6.95c.91.37.23.1 0 0zm547.22-99.32c-.54.57-1.12 1.11-1.71 1.62l-.84.7-.65.48c-.92.66-1.88 1.29-2.85 1.89a52.49 52.49 0 01-8 4.13 69 69 0 00-8.6.75L1121 776q17.52-54.94 35-109.89-4.11 34.5-8.21 69c-1.46 12.26-2.28 24.81-4.71 36.94a43.38 43.38 0 01-5.22 14.37c.03-.12-.71.9-.97 1.17zm119.85 60.62c-11.4-4.57-20.52-8.44-32-13.62q-16.29-7.33-32.27-15.32c-15.81-7.9-32.16-16.63-49.54-20.65.31-.25.62-.48.92-.74 3.9-3.38 6.27-7.73 8.16-12.48 2.39-6 3.43-12.38 4.27-18.76.91-6.8 1.65-13.62 2.47-20.44l5.1-43 4.71-39.59c1.26.64 2.5 1.29 3.73 2a130.86 130.86 0 0115.83 10.35c1.76 1.35 5.06 1.49 7.08.93a9.39 9.39 0 005.5-4.22 9.29 9.29 0 00.92-7.08 10.8 10.8 0 00-4.22-5.5 136.61 136.61 0 00-33.54-18.51q5.94-18.6 11.89-37.19a3 3 0 001 .8c8.24 4.09 14.75 10.69 22.44 15.62 8.09 5.18 17.41 7.59 26.62 9.91a140.66 140.66 0 0114.08 4.08 124.54 124.54 0 0112.93 5.93c8.24 4.14 16.61 8.43 25.77 10.08 10 1.8 20.08 2.48 30.07 4.06-.42.74-.81 1.5-1.17 2.3-3.79 8.43-5.13 17.67-8.57 26.21-4.78 11.83-10.57 22.93-12.76 35.65-.85 4.93 1.25 10.05 5.89 12.27a19.9 19.9 0 006.08 1.52c1.62.21 3.33.28 4.64 1.33 3.86 3.09 3.11 7.39 2.2 11.64a33.4 33.4 0 00-.92 11.75c-4 1.13-7.23 4.36-9.69 7.7-4 5.46-6.72 11.88-9.18 18.17s-4.6 13-6.8 19.47c-2.48 7.38-5.52 13.78-8.45 21.29-3.3 8.46-6.29 17.05-9 25.71zm147.62-15.36c-1.45 4.72-3 9.43-4.73 14-.24.62-.49 1.23-.73 1.85 0 .06-.07.16-.11.27-.44 1-.88 2-1.34 3a73.07 73.07 0 01-3.52 6.52c-.67 1.1-1.37 2.18-2.12 3.24-.15.22-.32.44-.48.66l-.16.22-.26.37.24-.35-.24.31a54.6 54.6 0 01-5.4 5.57c-.18.16-.37.31-.57.47a5.87 5.87 0 01-.47.4l-.15.13.12-.11-.08.06a44.095 44.095 0 01-5.74 3.53c-.55.28-1.11.55-1.67.81-.15.08-.31.14-.46.21h-.06c-2.11.71-4.17 1.47-6.34 2-1.08.27-2.17.5-3.27.7l-1.48.25h-.53a86 86 0 01-14.62.15c-1-.08-2.09-.18-3.13-.29l-2-.23h0-.27c-2.37-.38-4.73-.77-7.09-1.26-5-1-9.86-2.27-14.72-3.68-19-5.54-37.83-12.33-56.33-19.56q3.22-10.38 7-20.56c2.95-7.93 6.62-15.6 9.45-23.57 4.22-11.86 7.43-24.3 13.73-35.3a30 30 0 015.39-7.22 8.29 8.29 0 013.59-2.08c6.38 14 25.68 18.75 39.14 22.2 11 2.83 22 5.43 33.2 7.65 12.28 2.44 24.76 5.22 35.56 11.8-3.38 9.16-6.45 18.44-9.32 27.8zm30.67-24.5a1.29 1.29 0 01.78-.06 3.46 3.46 0 01-.78.06zm-5.41-39.16a271.12 271.12 0 00-13.66 30c-18.23-10.77-40.56-11.94-60.66-17.3-7.7-2-15.5-3.78-23-6.42-6.88-2.41-14.59-5.7-19.1-11.72a16.05 16.05 0 01-3.19-10.52c.21-4.31 1.93-8.42 2-12.75a14.22 14.22 0 00-5.78-11.49c-3.15-2.39-7.08-1.67-10.64-2.91-5.5-1.93-2.7-8-1.86-12a85.71 85.71 0 016-17.22c2.17-4.91 4.61-9.76 6.3-14.87 1.39-4.23 2.47-8.57 3.75-12.84 1.33-4.45 2.68-9.39 5.47-13.18 3-4 8.22-5.22 12.77-6.5 5.38-1.52 10.06-3.4 14.46-6.91a61.07 61.07 0 016.79-4.94A7.92 7.92 0 001352 639a9.71 9.71 0 007-1 32.07 32.07 0 015.43 2.85c3.57 2.12 6.92 4.58 10.47 6.74 4.48 2.73 9.61 4.49 14.38 6.66 5.51 2.49 11 5 16.7 7.08 17.58 6.46 36.68 6.71 54.79 11.06 7.34 1.76 15.46 4 21.62 8.67a79.3 79.3 0 01-3.53 11.25l-.42 1-.33.74c-.48 1.07-1 2.14-1.51 3.2-1.1 2.25-2.29 4.47-3.53 6.65-2.53 4.45-5.3 8.76-8.18 13-11.89 17.43-25.3 33.64-35.33 52.33zm-66.49-136.05c.08-.22.19-.41.26-.64l9.29-30.23c.22.1.42.21.65.3q8.58 3.23 17.08 6.65 4 1.62 8 3.29l3.25 1.35 1.23.52 2.66 1.14q16.62 7.16 32.91 15.05c10.62 5.15 21.16 10.49 31.52 16.16 2.17 1.19 4.29 2.46 6.35 3.83l.31.21c.45.37.9.76 1.34 1.16s1 1 1.44 1.43a4 4 0 00.39.33c0 .1.12.21.23.39.6.92 1.13 1.88 1.68 2.84l.18.31v.14c.2.66.46 1.31.66 2a32.55 32.55 0 01.79 3.24c.06.31.11.62.16.94s.14 1.33.16 1.61a55.88 55.88 0 010 7.32c0 .65-.12 1.31-.18 2a64 64 0 00-16.56-6.8c-9.44-2.65-19.18-4.13-28.87-5.57-9.41-1.41-18.84-2.67-27.89-5.75-6.09-2.08-12-4.73-17.81-7.38-4.87-2.21-10.07-4-14.63-6.81-4.24-2.6-8.22-5.64-12.65-8-.59-.38-1.28-.71-1.98-1.03zm216.52 203.39c-17.89-1.79-35.76-3.88-53.65-5.61-17.44-1.69-34.92-3-52.43-3.37-2.09-13.14-7.6-25.34-19.87-32.66a33.29 33.29 0 00-14.09-4.66c.24-.51.46-1 .71-1.56a231.51 231.51 0 0117.36-30.32c5.91-8.68 12.33-17 18.45-25.52 12.39-17.24 23.41-35.75 25.76-57.25a60 60 0 00.14-11.83 240 240 0 0134.53 1.69l1.42.18 1.35.19 4.25.66q4.71.78 9.39 1.74 9.36 1.93 18.55 4.6c23.14 6.75 44.57 18.83 68.17 24l1.51.29c-5.55 20.62-10.46 41.43-17.43 61.64-2.57 7.45-4.69 15-7.3 22.47a109.25 109.25 0 01-10.73 21.36c-4.3 7-8.07 14.65-13.55 20.8-4.02 4.49-9.01 8.28-12.57 13.16zm113.69-1.48a68.08 68.08 0 01-16 3.85c-13.87 1.9-28.12 1.74-42.08 1.41-16.13-.37-32.19-1.58-48.24-3.09 2.86-3.12 6.22-5.87 9-8.93 4.85-5.28 8.45-11.66 12.11-17.78 3.76-6.3 7.91-12.34 10.89-19.08a147.92 147.92 0 005.48-15 3.2 3.2 0 00.78.1c13.2.06 26.16 3.08 39.31 3.71 6 .29 12.06.16 18.08.51 3.92.23 8.27.48 12.08 1.88a249 249 0 00-.08 32.32 169 169 0 002.28 18.33 28.72 28.72 0 01-3.64 1.77zm5.2-138.22l-.72-.27-.19-.16a9.47 9.47 0 00.88.43zm-.89-.34h-.08v-.07 0h0zm-.12-.15h0v-.05a.22.22 0 01-.03.05zm-4.62-4.23a10 10 0 004.45 4.17.76.76 0 00.08.11v0h0l.15.26c.41.83.38.74 0-.21h.07a10.14 10.14 0 01.58 2.36c.11.44.18.89.27 1.35h0a2.26 2.26 0 000 .25c.26 5.35.56 10.67.55 16 0 11-.78 21.92-1.68 32.85-.74 9-1.58 18-2.23 27a54.16 54.16 0 00-10.37-1.56c-6.31-.5-12.65-.37-19-.6-13.2-.49-26.21-3.51-39.44-3.73 4.5-14.39 9.3-28.6 13.19-43.18 2.59-9.7 5-19.45 7.62-29.15 15.62 2.38 31.77 1.03 45.73-5.92zm-101.59-210.3l170.51-1.45c-6.9 9.45-15.43 17.71-21 28.09-7.1 13.14-9.74 28-13.9 42.18-4.28 14.63-11.39 28.21-16.88 42.4-3.57 9.2-6.9 18.55-16.22 23.32-10 5.1-24.18 5.33-31.14 15.31-2.71 3.88-3.62 9.15-5.09 13.57-2.42 7.33-5 14.6-7.49 21.92-1.37 4-2.65 8.13-3.88 12.23-21.87-4.49-41.8-15.32-63-22.18a246.87 246.87 0 00-83.9-11.8 9.55 9.55 0 00-2.79.56 35.28 35.28 0 00-3.3-4.67c-3.67-4.35-8.68-7.52-13.61-10.24-3.13-1.72-6.28-3.39-9.44-5 3.32-4.46 5.49-9.89 7.34-15 3-8.27 5.67-16.71 8.44-25.06a335.4 335.4 0 009.71-35.35c2.53-11.79 3.62-23.83 4.78-35.81 1.07-10.93 4.58-21.43 6.23-32.25zm-90.76.76c-1.42 8.81-4.17 17.41-5.48 26.25-1.71 11.45-2.15 23-4.17 34.45-3.64 20.61-10.8 40.3-17.23 60.14a105.6 105.6 0 01-4.87 12.91 35.65 35.65 0 01-4 6.87l-1.45-.75q-33.27-17-68-31-8.51-3.42-17.09-6.65h-.16l21.39-69.65a8.76 8.76 0 00-.46-6 66.36 66.36 0 0110.41-11.61c4.24-3.86 9.28-8.76 11-14.28zm-86.53.73c-2.34 5-8.81 9.63-11.92 12.63a58.43 58.43 0 00-7.28 8.58 7.18 7.18 0 00-1.81-.68 9.39 9.39 0 00-11.3 6.42q-18 58.68-36.05 117.36a8.49 8.49 0 00.07 4.94c-.93.57-1.84 1.16-2.72 1.8-4.36 3.15-8 6.44-13.18 8.12-4.75 1.52-9.81 2.43-14.16 5a17.4 17.4 0 00-2.65 1.91c-9.27-1.66-18.63-2.58-28-3.82-9.67-1.28-18.13-4.66-26.8-9-8.48-4.26-16.83-8.13-26-10.57s-18.64-4.18-27-8.77c-9-5-16.1-12.77-25.35-17.36a3 3 0 00-2.66-.06q9.25-28.94 18.58-57.86 9.18-28.49 18.48-56.94zm-28.24-62.49l-150.37 1.27c20.73-53.55 42.91-106.54 64.71-159.66l1.71-4.18a511.81 511.81 0 0089.27 34.77c15.55 4.52 31.07 9 46.39 14.29q11.31 3.89 22.48 8.15 5.36 2 10.69 4.18c1.77.71 3.55 1.43 5.32 2.16l2.65 1.09 1.76.74.6.25q24.6 10.38 48.32 22.69c3.74 1.93 8.73 1.44 11.53-1.77 3.84 2.93 7.76 5.82 11 9.38 3.9 4.37 3.82 9.5 2.1 14.85a110.45 110.45 0 01-5.47 12.65c-2.11 4.58-4.23 9.16-6.42 13.7-3.94 8.22-8.1 16.33-12.66 24.22z" fill="none" stroke-miterlimit="10" stroke-width="5" stroke="url(#b6ee2d9f-d970-4a9f-9c8c-9db2ee132e7c)" id="a5e65bcd-f659-41d5-8f11-145509c79457" data-name="group2"/><path opacity=".38" fill="url(#af0311ae-76ca-45c6-9404-b54fde0f8e58)" d="M221.98 121.93h1462.59v892.51H221.98z"/><path fill="url(#a64866a7-bb1e-46e8-abe2-dedb21afdb36)" d="M-347.42-353.33h2616.55v1843.04H-347.42z"/></svg>