<svg width="240" height="240" fill="none" xmlns="http://www.w3.org/2000/svg"><path fill-rule="evenodd" clip-rule="evenodd" d="M120 228c59.647 0 108-48.352 108-108 0-59.647-48.352-108-108-108C60.353 12 12 60.353 12 120s48.353 108 108 108zm0 12c66.273 0 120-53.727 120-120C240 53.725 186.273 0 120 0 53.725 0 0 53.725 0 120c0 66.273 53.725 120 120 120z" fill="#fff" fill-opacity=".1"/><path fill-rule="evenodd" clip-rule="evenodd" d="M151.184 120L96.001 83.212v73.578L151.184 120zm11.149-6.989c4.988 3.326 4.988 10.654 0 13.979L97.06 170.506c-5.582 3.722-13.06-.281-13.06-6.99v-87.03c0-6.71 7.478-10.711 13.06-6.99l65.273 43.515z" fill="#fff" fill-opacity=".1"/></svg>