<svg version="1.1" id="Слой_1" xmlns="http://www.w3.org/2000/svg" xmlns:xlink="http://www.w3.org/1999/xlink" x="0" y="0" viewBox="0 0 240 240" xml:space="preserve"><linearGradient id="SVGID_1_" gradientUnits="userSpaceOnUse" x1="0" y1="120" x2="240" y2="120"><stop offset="0" stop-color="#f8b835"/><stop offset="1" stop-color="#e94f27"/></linearGradient><path d="M120 228c59.6 0 108-48.4 108-108S179.6 12 120 12 12 60.4 12 120s48.4 108 108 108zm0 12c66.3 0 120-53.7 120-120S186.3 0 120 0 0 53.7 0 120s53.7 120 120 120z" fill-rule="evenodd" clip-rule="evenodd" fill="url(#SVGID_1_)"/><linearGradient id="SVGID_2_" gradientUnits="userSpaceOnUse" x1="84" y1="120.001" x2="166.074" y2="120.001"><stop offset="0" stop-color="#f8b835"/><stop offset="1" stop-color="#e94f27"/></linearGradient><path d="M151.2 120L96 83.2v73.6l55.2-36.8zm11.1-7c5 3.3 5 10.7 0 14L97 170.5c-5.6 3.7-13.1-.3-13.1-7v-87c0-6.7 7.5-10.7 13.1-7 .1 0 65.3 43.5 65.3 43.5z" fill-rule="evenodd" clip-rule="evenodd" fill="url(#SVGID_2_)"/><image width="913" height="220" xlink:href="3704CC99.jpg" transform="translate(-317.343 417.45) scale(.4301)" overflow="visible"/></svg>