<svg width="16" height="16" fill="none" xmlns="http://www.w3.org/2000/svg"><g clip-path="url(#clip0_30306_1457)" fill="#fff"><path d="M12.394 16H15.5a.5.5 0 00.5-.5c-.234-5.239 1.227-10.766-4.226-10.766-1.049 0-1.884.358-2.486.831 0-.974-1.052-.435-3.482-.58a.5.5 0 00-.5.5c.2 9.444-.45 10.514.5 10.514h3.106c.902 0 .328-1.272.5-5.458 0-1.73.5-2.068 1.364-2.068.956 0 1.117.664 1.117 2.152.171 4.111-.399 5.375.5 5.375zm-1.617-8.527c-2.994 0-2.364 3.292-2.364 7.526H6.307V5.985h1.982v.866c0 .48.732.716.986.233.328-.623 1.18-1.35 2.5-1.35 2.351 0 3.226 1.155 3.226 4.264V15h-2.107c0-4.763.504-7.527-2.117-7.527zM.748 4.986c-.947 0-.299 1.057-.5 10.514a.5.5 0 00.5.5h3.11c.946 0 .299-1.057.5-10.514 0-.863-1.254-.354-3.61-.5zM3.358 15h-2.11V5.986h2.11V15zM2.302 0c-3.051 0-3.032 4.62 0 4.62 3.03 0 3.054-4.62 0-4.62zm0 3.62C.59 3.62.574 1 2.302 1c1.73 0 1.709 2.62 0 2.62z"/></g><defs><clipPath id="clip0_30306_1457"><path fill="#fff" d="M0 0h16v16H0z"/></clipPath></defs></svg>