<svg width="16" height="16" fill="none" xmlns="http://www.w3.org/2000/svg"><g clip-path="url(#clip0_30306_1452)" fill="#fff"><path d="M12.851 13.604H3.15A3.153 3.153 0 010 10.454V5.545a3.153 3.153 0 013.149-3.149h9.702A3.152 3.152 0 0116 5.546v4.909a3.152 3.152 0 01-3.149 3.149zM3.15 3.334c-1.22 0-2.212.992-2.212 2.211v4.91c0 1.219.993 2.211 2.212 2.211h9.702c1.22 0 2.211-.992 2.211-2.211v-4.91c0-1.22-.992-2.211-2.21-2.211H3.148z"/><path d="M6.446 11.002a.468.468 0 01-.468-.469V5.406a.469.469 0 01.718-.397l4.132 2.598a.469.469 0 01-.005.796l-4.132 2.53a.469.469 0 01-.245.07zm.469-4.748v3.443l2.774-1.699-2.774-1.744z"/></g><defs><clipPath id="clip0_30306_1452"><path fill="#fff" d="M0 0h16v16H0z"/></clipPath></defs></svg>