<svg width="16" height="16" fill="none" xmlns="http://www.w3.org/2000/svg"><path d="M11.614 0H4.386A4.391 4.391 0 000 4.386v7.228A4.391 4.391 0 004.386 16h7.228A4.391 4.391 0 0016 11.614V4.386A4.391 4.391 0 0011.614 0zm3.441 11.614a3.445 3.445 0 01-3.441 3.441H4.386a3.445 3.445 0 01-3.441-3.441V4.386A3.445 3.445 0 014.386.945h7.228a3.445 3.445 0 013.441 3.441v7.228z" fill="#fff"/><path d="M8 3.612A4.393 4.393 0 003.61 8 4.393 4.393 0 008 12.39 4.393 4.393 0 0012.388 8 4.393 4.393 0 008 3.612zm0 7.832A3.448 3.448 0 014.556 8 3.448 3.448 0 018 4.557 3.448 3.448 0 0111.444 8 3.448 3.448 0 018 11.444zm4.652-9.428c-.736 0-1.334.598-1.334 1.333a1.335 1.335 0 002.667 0c0-.735-.598-1.333-1.333-1.333zm0 1.721a.389.389 0 110-.777.389.389 0 010 .777z" fill="#fff"/></svg>