<svg xmlns="http://www.w3.org/2000/svg" xmlns:xlink="http://www.w3.org/1999/xlink" viewBox="0 0 2193.67 441.11"><defs><linearGradient id="a72670cc-2e4a-45d3-bfbf-54e3c62c7f84" x1="3891.66" y1="764.7" x2="5442.7" y2="764.7" gradientTransform="rotate(-8.62 -159.743 26230.138)" gradientUnits="userSpaceOnUse"><stop offset=".23" stop-color="#fc4a1a"/><stop offset=".23" stop-color="#fc4b1a"/><stop offset=".4" stop-color="#fa7624"/><stop offset=".55" stop-color="#f8942b"/><stop offset=".68" stop-color="#f7a72f"/><stop offset=".77" stop-color="#f7ae31"/><stop offset=".78" stop-color="#f7ae31" stop-opacity=".98"/><stop offset=".81" stop-color="#f7af31" stop-opacity=".91"/><stop offset=".83" stop-color="#f7b031" stop-opacity=".81"/><stop offset=".86" stop-color="#f7b132" stop-opacity=".66"/><stop offset=".89" stop-color="#f7b332" stop-opacity=".47"/><stop offset=".92" stop-color="#f7b533" stop-opacity=".25"/><stop offset=".95" stop-color="#f7b733" stop-opacity="0"/></linearGradient><linearGradient id="e1f47c82-fd4c-4e08-b1d2-acbcf1e10315" x1="3915.26" y1="702.66" x2="5482.63" y2="702.66" gradientTransform="rotate(-8.62 -159.743 26230.138)" gradientUnits="userSpaceOnUse"><stop offset=".18" stop-color="#fc4a1a"/><stop offset=".19" stop-color="#fc4b1a"/><stop offset=".37" stop-color="#fa7624"/><stop offset=".53" stop-color="#f8942b"/><stop offset=".67" stop-color="#f7a72f"/><stop offset=".77" stop-color="#f7ae31"/><stop offset=".78" stop-color="#f7ae31" stop-opacity=".98"/><stop offset=".81" stop-color="#f7af31" stop-opacity=".91"/><stop offset=".83" stop-color="#f7b031" stop-opacity=".81"/><stop offset=".86" stop-color="#f7b132" stop-opacity=".66"/><stop offset=".89" stop-color="#f7b332" stop-opacity=".47"/><stop offset=".92" stop-color="#f7b533" stop-opacity=".25"/><stop offset=".95" stop-color="#f7b733" stop-opacity="0"/></linearGradient><linearGradient id="a26c055d-f0a5-4861-89b5-3f0d7025a742" x1="3952.72" y1="644.74" x2="5409.65" y2="644.74" xlink:href="#e1f47c82-fd4c-4e08-b1d2-acbcf1e10315"/><linearGradient id="ec6f5e39-5c06-4952-b84a-8c92fb660999" x1="2535.58" y1="559.02" x2="4086.62" y2="559.02" gradientTransform="matrix(-.99 -.15 -.15 .99 4824.09 272.35)" xlink:href="#a72670cc-2e4a-45d3-bfbf-54e3c62c7f84"/><linearGradient id="bad28055-0e79-48ca-a56e-c0d25242ae43" x1="2559.17" y1="496.98" x2="4126.54" y2="496.98" gradientTransform="matrix(-.99 -.15 -.15 .99 4824.09 272.35)" xlink:href="#e1f47c82-fd4c-4e08-b1d2-acbcf1e10315"/><linearGradient id="f6642f28-afa0-4ac8-a335-c02992c03cda" x1="2596.64" y1="439.06" x2="4053.57" y2="439.06" gradientTransform="matrix(-.99 -.15 -.15 .99 4824.09 272.35)" xlink:href="#e1f47c82-fd4c-4e08-b1d2-acbcf1e10315"/><linearGradient id="aba83160-1775-4712-9058-7e02cb325f1c" x1="22.06" y1="157.91" x2="339.99" y2="240.43" gradientUnits="userSpaceOnUse"><stop offset=".37" stop-color="#060709"/><stop offset=".79" stop-color="#060709" stop-opacity=".55"/><stop offset="1" stop-color="#060709" stop-opacity="0"/></linearGradient><linearGradient id="bf421797-5399-4872-b827-0414d699dd33" x1="2143.86" y1="226.16" x2="1804.08" y2="231.01" gradientUnits="userSpaceOnUse"><stop offset=".15" stop-color="#060709"/><stop offset=".42" stop-color="#060709" stop-opacity=".25"/><stop offset="1" stop-color="#060709" stop-opacity="0"/></linearGradient></defs><g id="a5f6e66b-2ff4-4de3-a9e9-cc5a62a06fff" data-name="Слой 2"><g id="e7110b0a-1bc3-4943-b4c4-2dc91b29367c" data-name="Слой 1"><path d="M1131.39 417.23l-731.83-.92c-18.57-.51-28.31-11.16-33.64-18.07l-46.79-60.71-27.86-36.15c-4.65-6-9.27-12.16-14.67-18.39a96.92 96.92 0 00-9-9.2 58 58 0 00-11.51-8.08 50.16 50.16 0 00-13.72-4.81 62.8 62.8 0 00-13.69-1.09c-1.11 0-2.2.06-3.28.15s-2.16.14-3.22.25-2.12.22-3.16.36l-3 .4-11.19 1.53c-15 2-30.08 3.79-45.17 5.6l-2.57.3-1.77 20.06 6.45-.59c15.17-1.43 30.33-2.88 45.55-4.49l11.46-1.28 2.69-.29c.85-.1 1.69-.17 2.52-.22s1.66-.12 2.47-.14 1.63-.05 2.43 0a40.1 40.1 0 019 .92 27.91 27.91 0 017.67 2.91c4.75 2.65 9.25 7.08 13.7 12.5s8.83 11.5 13.33 17.64l73.51 99.35a57 57 0 0040.38 22.83l744.88 3.55z" fill="#892e12"/><path d="M1131.39 414l-731.8-.92C381 412.57 371.28 401.92 366 395l-46.79-60.7-27.91-36.14c-4.65-6-9.27-12.17-14.66-18.39a97.17 97.17 0 00-9-9.21 58.51 58.51 0 00-11.51-8.08 50.14 50.14 0 00-13.72-4.8 61.58 61.58 0 00-13.69-1.09c-1.11 0-2.2.06-3.28.14s-2.16.15-3.21.26-2.12.22-3.16.36l-3 .4-11.18 1.53c-15 2-30.09 3.79-45.17 5.59l-2.32.27-1.77 20.07 6.19-.57c15.17-1.43 30.33-2.88 45.55-4.49l11.46-1.27 2.7-.3c.84-.09 1.68-.17 2.51-.22s1.66-.12 2.48-.13 1.62-.06 2.42-.05a40.69 40.69 0 019 .92 27.79 27.79 0 017.67 2.91c4.75 2.65 9.25 7.09 13.7 12.5s8.83 11.5 13.34 17.64l73.51 99.35a57 57 0 0040.37 22.84l744.85 3.54z" fill="url(#a72670cc-2e4a-45d3-bfbf-54e3c62c7f84)"/><path d="M1131.39 344.35l-670.18-.94c-15.66.53-30.74-9.2-41-21l-43.49-49.91-15.09-17.32-7.55-8.67-3.77-4.33-1.89-2.18-.94-1.08c-.16-.19-.3-.36-.49-.55l-.6-.61-2.4-2.43c-.8-.77-1.58-1.47-2.37-2.21-1.56-1.46-3.22-2.83-4.87-4.2a110.84 110.84 0 00-10.46-7.45 112 112 0 00-23-10.93 136.5 136.5 0 00-49.1-6.94c-4.1.14-8.19.45-12.26.9-2 .22-4.06.5-6.08.8l-5.81 1-22.54 3.7-45.28 7.21-2.64.43-1.71 19.36 7.11-1 45.47-6.07 22.79-3.14 5.53-.77a139.553 139.553 0 0115.92-1.1 114.72 114.72 0 0141.08 6.74 89.33 89.33 0 0118.13 9.14 85 85 0 018.05 6.05c1.27 1.1 2.54 2.19 3.73 3.37l1.79 1.75 1.59 1.68.4.41c.14.15.31.36.45.54l.92 1.1 1.83 2.2 3.65 4.4 7.31 8.81 14.61 17.61L411 352.27a44.63 44.63 0 0035 16.12l685.37 1z" fill="#892e12"/><path d="M1131.39 340l-672.15-1c-15.66.53-30.73-9.21-41-21l-43.47-49.89-15.09-17.33-7.54-8.66-3.78-4.33-1.88-2.16-.95-1.08c-.16-.19-.29-.36-.48-.55l-.6-.61-2.45-2.48c-.8-.77-1.57-1.47-2.36-2.21-1.57-1.47-3.23-2.83-4.88-4.2a107.81 107.81 0 00-10.46-7.45 111 111 0 00-23-10.93 136.47 136.47 0 00-49.1-6.94q-6.15.21-12.25.9c-2 .22-4.06.5-6.08.8l-5.81 1-22.56 3.7-45.28 7.21h-.24l-1.72 19.43 4.72-.64 45.48-6.07 22.78-3.15 5.53-.76a140.073 140.073 0 0115.93-1.1 114.63 114.63 0 0141.07 6.74 88.81 88.81 0 0118.13 9.14 86.78 86.78 0 018.06 6c1.26 1.11 2.54 2.2 3.73 3.38l1.78 1.75 1.6 1.67.4.42c.14.15.3.36.45.53l.91 1.11 1.83 2.2 3.65 4.4 7.31 8.81 14.62 17.61L409 347.83A44.63 44.63 0 00444.06 364l687.33 1z" fill="url(#e1f47c82-fd4c-4e08-b1d2-acbcf1e10315)"/><path d="M1131.39 273.79H511.66a41.54 41.54 0 01-35.57-12.24l-78.18-80.74-.34-.34-.2-.18a114.66 114.66 0 00-35.34-22 124.5 124.5 0 00-40.39-8c-13.54-.57-26.79.68-39.55 2.32l-18.9 2.54-18.9 2.68c-25.15 3.68-50.2 7.56-75.3 11.78l-6.86 1.19-1.53 17.26 1.72-.27 9.33-1.4q37.46-5.47 75.13-10.1l18.78-2.25 18.81-2.17c12.37-1.35 24.48-2.21 36.27-1.49a104.22 104.22 0 0133.68 7.3A93.57 93.57 0 01382.54 196l75.62 84.71c10.9 11.88 28.25 19.45 57 18l616.21.74z" fill="#892e12"/><path d="M1131.39 268.93H509.63c-17.21.68-28.45-5.1-35.56-12.23L395.88 176l-.33-.34-.21-.19a114.82 114.82 0 00-35.34-22 124.5 124.5 0 00-40.39-8c-13.54-.57-26.78.68-39.55 2.32l-18.9 2.54-18.9 2.67q-37.72 5.52-75.29 11.78l-4.38.76-1.53 17.3 8.57-1.29c25-3.65 50.06-7 75.12-10.1l18.78-2.24 18.81-2.21c12.37-1.35 24.48-2.21 36.27-1.49a103.9 103.9 0 0133.68 7.3 93.45 93.45 0 0128.22 18.26l75.62 81.52c17.75 15.93 25.16 20.24 57 21.15l618.23.77z" fill="url(#a26c055d-f0a5-4861-89b5-3f0d7025a742)"/><path d="M1131.1 417.23l731.83-.92c18.58-.51 28.32-11.16 33.65-18.07l46.78-60.71 27.87-36.15c4.65-6 9.27-12.16 14.66-18.39a98.15 98.15 0 019-9.2 58 58 0 0111.52-8.08 50.16 50.16 0 0113.72-4.81 62.7 62.7 0 0113.69-1.09c1.11 0 2.2.06 3.28.15s2.15.14 3.21.25 2.12.22 3.16.36l3 .4 11.18 1.53c15 2 30.09 3.79 45.17 5.6l2.58.3 1.77 20.06-6.45-.59c-15.17-1.43-30.33-2.88-45.55-4.49l-11.46-1.28-2.7-.29c-.85-.1-1.69-.17-2.51-.22s-1.67-.12-2.48-.14-1.63-.05-2.42 0a40 40 0 00-9 .92 27.79 27.79 0 00-7.67 2.91c-4.75 2.65-9.25 7.08-13.7 12.5s-8.83 11.5-13.34 17.64l-73.51 99.35a57 57 0 01-40.38 22.79l-744.89 3.55z" fill="#892e12"/><path d="M1131.1 414l731.8-.92c18.58-.51 28.32-11.16 33.64-18.07l46.79-60.7 27.86-36.15c4.66-6 9.27-12.17 14.67-18.39a97 97 0 019-9.21 58.89 58.89 0 0111.52-8.08 50 50 0 0113.71-4.8 61.62 61.62 0 0113.7-1.09c1.1 0 2.2.06 3.27.14s2.16.15 3.22.26 2.12.22 3.16.36l3 .4 11.18 1.53c15 2 30.09 3.79 45.17 5.59l2.32.27 1.77 20.07-6.2-.57c-15.17-1.43-30.33-2.88-45.54-4.49l-11.47-1.27-2.69-.3c-.85-.09-1.69-.17-2.52-.22s-1.66-.12-2.47-.13-1.63-.06-2.42-.05a40.56 40.56 0 00-9 .92 27.79 27.79 0 00-7.67 2.91c-4.75 2.65-9.26 7.09-13.71 12.5s-8.82 11.5-13.33 17.64l-73.51 99.35a57 57 0 01-40.35 22.84l-744.85 3.54z" fill="url(#ec6f5e39-5c06-4952-b84a-8c92fb660999)"/><path d="M1131.1 344.35l670.19-.94c15.66.53 30.73-9.2 41-21l43.46-49.89 15.09-17.32 7.54-8.67 3.78-4.33 1.88-2.16 1-1.08c.16-.19.3-.36.48-.55l.6-.61 2.41-2.43c.8-.77 1.58-1.47 2.37-2.21 1.56-1.46 3.22-2.83 4.87-4.2a109.55 109.55 0 0133.45-18.38 136.47 136.47 0 0149.1-6.94c4.1.14 8.19.45 12.25.9 2 .22 4.06.5 6.08.8l5.81 1L2055 210l45.28 7.21 2.63.43 1.71 19.36-7.1-1-45.52-6.06-22.78-3.14-5.53-.77c-1.76-.22-3.53-.42-5.3-.57q-5.31-.47-10.62-.53a114.69 114.69 0 00-41.08 6.74 88.81 88.81 0 00-18.13 9.14 85.14 85.14 0 00-8.06 6.05c-1.26 1.1-2.54 2.19-3.73 3.37L1935 252l-1.6 1.68-.4.41c-.14.15-.3.36-.45.54l-.91 1.1-1.83 2.2-3.65 4.4-7.31 8.81-14.62 17.61-52.72 63.54a44.63 44.63 0 01-35.06 16.12l-685.38 1z" fill="#892e12"/><path d="M1131.1 340l672.15-1c15.66.53 30.74-9.21 41-21l43.46-49.89 15.09-17.33 7.55-8.66 3.77-4.33 1.89-2.16.94-1.08c.17-.19.3-.36.49-.55l.6-.61 2.41-2.43c.79-.77 1.57-1.47 2.36-2.21 1.56-1.47 3.22-2.83 4.87-4.2a109 109 0 0110.46-7.45 111.49 111.49 0 0123-10.93 136.5 136.5 0 0149.1-6.94q6.15.21 12.26.9c2 .22 4.06.5 6.08.8l5.81 1 22.55 3.7 45.28 7.21h.25l1.71 19.43-4.72-.64-45.46-6.13-22.79-3.15-5.53-.76c-1.76-.22-3.53-.42-5.29-.57-3.54-.31-7.09-.49-10.63-.53a114.72 114.72 0 00-41.08 6.74 89.33 89.33 0 00-18.13 9.14 88 88 0 00-8 6c-1.26 1.11-2.54 2.2-3.73 3.38l-1.79 1.75-1.59 1.67-.4.42c-.14.15-.3.36-.45.53l-.92 1.11-1.82 2.2-3.66 4.4-7.31 8.81-14.61 17.61-52.72 63.54a44.63 44.63 0 01-35.11 16.21l-687.34 1z" fill="url(#bad28055-0e79-48ca-a56e-c0d25242ae43)"/><path d="M1131.1 273.79h619.74a41.52 41.52 0 0035.56-12.24l78.19-80.74.33-.34.21-.18a114.62 114.62 0 0135.33-22 124.56 124.56 0 0140.4-8c13.54-.57 26.78.68 39.55 2.32l18.9 2.54 18.89 2.68q37.72 5.52 75.3 11.78l6.87 1.19 1.52 17.26-1.71-.27-9.34-1.4c-25-3.65-50.06-7-75.12-10.1l-18.78-2.25-18.82-2.17c-12.36-1.35-24.48-2.21-36.26-1.49a104.17 104.17 0 00-33.68 7.3A93.45 93.45 0 001880 196l-75.62 84.71c-10.9 11.88-28.26 19.45-57 18l-616.21.74z" fill="#892e12"/><path d="M1131.1 268.93h621.77c17.2.68 28.44-5.1 35.56-12.23l78.19-80.7.33-.34.2-.19a114.94 114.94 0 0135.34-22 124.56 124.56 0 0140.4-8c13.54-.57 26.78.68 39.55 2.32l18.89 2.54 18.9 2.68q37.72 5.52 75.3 11.78l4.37.76 1.53 17.3-8.56-1.29c-25-3.65-50.06-7-75.12-10.1l-18.75-2.25-18.85-2.21c-12.37-1.35-24.48-2.21-36.26-1.49a103.9 103.9 0 00-33.68 7.3 93.62 93.62 0 00-28.21 18.3l-75.61 81.52c-17.76 15.93-25.17 20.24-57 21.15l-618.24.77z" fill="url(#f6642f28-afa0-4ac8-a335-c02992c03cda)"/><circle cx="205.53" cy="205.53" r="205.53" fill="url(#aba83160-1775-4712-9058-7e02cb325f1c)"/><circle cx="1988.14" cy="228.38" r="205.53" fill="url(#bf421797-5399-4872-b827-0414d699dd33)"/></g></g></svg>